<?xml version="1.0" standalone="no"?>
<!DOCTYPE svg PUBLIC "-//W3C//DTD SVG 1.1//EN" "http://www.w3.org/Graphics/SVG/1.1/DTD/svg11.dtd" >
<svg>
<metadata>
Created by FontForge 20090914 at Mon Oct  5 20:30:22 2020
 By www-data
Copyright 2001 Double Alex Font Studio.
</metadata>
<defs>
<font id="Plumb-Medium" horiz-adv-x="533" >
  <font-face 
    font-family="Plumb Medium"
    font-weight="500"
    font-stretch="normal"
    units-per-em="1000"
    panose-1="0 0 0 0 0 0 0 0 0 0"
    ascent="800"
    descent="-200"
    x-height="507"
    cap-height="712"
    bbox="-35 -211.001 1137 927"
    underline-thickness="50"
    underline-position="-75"
    unicode-range="U+0020-U+2265"
  />
<missing-glyph horiz-adv-x="1000" 
 />
    <glyph glyph-name=".notdef" horiz-adv-x="1000" 
 />
    <glyph glyph-name="space" unicode=" " horiz-adv-x="240" 
 />
    <glyph glyph-name="exclam" unicode="!" horiz-adv-x="332" 
d="M245 712l-23 -500h-78l-22 500h123zM248 62c0 -18 -6.33301 -33.333 -19 -46s-28 -19 -46 -19c-17.333 0 -32.5 6.33301 -45.5 19s-19.5 27.667 -19.5 45c0 18 6.5 33.333 19.5 46s28.167 19 45.5 19s32.5 -6.33301 45.5 -19s19.5 -27.667 19.5 -45z" />
    <glyph glyph-name="quotedbl" unicode="&#x22;" horiz-adv-x="444" 
d="M366 521h-101v191h101v-191zM179 521h-101v191h101v-191z" />
    <glyph glyph-name="numbersign" unicode="#" horiz-adv-x="673" 
d="M623 426h-92l-20 -124h79v-94h-94l-33 -208h-106l33 208h-137l-33 -208h-106l33 208h-79v94h95l19 124h-81v94h95l31 196h107l-31 -196h136l31 196h106l-31 -196h78v-94zM424 426h-136l-20 -124h137z" />
    <glyph glyph-name="dollar" unicode="$" horiz-adv-x="608" 
d="M556 204c0 -80.667 -36.668 -140 -110.001 -178c-22.667 -12 -58.334 -21.667 -107.001 -29v-111h-81v108c-51.333 3.33301 -93.166 11.5 -125.499 24.5s-66.5 36.167 -102.5 69.5l72 72c24.667 -22.667 47.334 -38.667 68.001 -48
c25.333 -11.333 57.666 -18.333 96.999 -21v222l-26 3c-58.667 6.66699 -104.5 27 -137.5 61s-49.5 77.667 -49.5 131c0 55.333 16.667 101.333 50 138c20.667 22 42.667 37.833 66 47.5s52.666 17.167 87.999 22.5v90h81v-89c44.667 -4 79.5 -11.167 104.5 -21.5
s54.167 -29.833 87.5 -58.5l-69 -68c-19.333 16 -37.666 28 -54.999 36c-19.333 8.66699 -44.666 14.667 -75.999 18v-216l34 -5c56.667 -8.66699 100.667 -26 132 -52c39.333 -34 59 -82.667 59 -146zM266.999 414l0.000976562 208c-72 -9.33301 -108 -45.333 -108 -108
c0 -28.667 8.66699 -51 26 -67s44.666 -27 81.999 -33zM449 201c0 35.333 -10.167 60.333 -30.5 75s-49.5 24.667 -87.5 30v-214c38 6 67.167 17 87.5 33s30.5 41.333 30.5 76z" />
    <glyph glyph-name="percent" unicode="%" horiz-adv-x="841" 
d="M783 130c0 -40.667 -13 -73.5 -39 -98.5s-59.667 -37.5 -101 -37.5c-42 0 -75.833 12.5 -101.5 37.5s-38.5 57.833 -38.5 98.5v101c0 40.667 12.833 73.5 38.5 98.5s59.5 37.5 101.5 37.5c41.333 0 75 -12.5 101 -37.5s39 -57.833 39 -98.5v-101zM629 712l-335 -712h-82
l336 712h81zM339 481c0 -40.667 -13 -73.5 -39 -98.5s-60 -37.5 -102 -37.5s-75.833 12.5 -101.5 37.5s-38.5 57.833 -38.5 98.5v101c0 40.667 13 73.5 39 98.5s59.667 37.5 101 37.5c42 0 76 -12.5 102 -37.5s39 -57.833 39 -98.5v-101zM707 133v95c0 48 -21.333 72 -64 72
s-64 -24 -64 -72v-95c0 -48 21.333 -72 64 -72s64 24 64 72zM263 484v95c0 48 -21.667 72 -65 72c-42.667 0 -64 -24 -64 -72v-95c0 -48 21.667 -72 65 -72c42.667 0 64 24 64 72z" />
    <glyph glyph-name="ampersand" unicode="&#x26;" horiz-adv-x="730" 
d="M684 0l-130.995 0.00292969l-58 70c-32 -27.333 -62.833 -46.833 -92.5 -58.5s-65.167 -17.5 -106.5 -17.5c-70 0 -125.5 18.667 -166.5 56s-61.5 87.666 -61.5 150.999c0 46.667 11.667 84.667 35 114s58.666 60 105.999 92
c-16.667 19.333 -29.334 35.166 -38.001 47.499s-16.834 28.166 -24.501 47.499s-11.5 39.333 -11.5 60c0 45.333 16.167 82.666 48.5 111.999s73.5 44 123.5 44c49.333 0 90.166 -14.833 122.499 -44.5s48.5 -67.167 48.5 -112.5c0 -34.667 -11.167 -64.167 -33.5 -88.5
s-53.833 -49.5 -94.5 -75.5l150 -180c12 18.667 20 35 24 49c7.33301 22.667 12 54.334 14 95.001h98c-2.66699 -57.333 -11.334 -105 -26.001 -143c-10 -25.333 -25 -51 -45 -77zM380.005 559.003c0 20.667 -6.66699 37.5 -20 50.5s-30.333 19.5 -51 19.5
s-37.5 -6.33301 -50.5 -19s-19.5 -29 -19.5 -49c0 -12 3.5 -25 10.5 -39s12.833 -23.833 17.5 -29.5l27 -31.5l18 11.5c10 6.33301 16.667 10.833 20 13.5l17 14c8 6.66699 13.667 12.5 17 17.5s6.5 11.167 9.5 18.5s4.5 15 4.5 23zM434.005 142.003l-169 200.999
c-17.333 -12 -29.833 -21.167 -37.5 -27.5s-17 -15.5 -28 -27.5s-18.833 -24.5 -23.5 -37.5s-7 -27.5 -7 -43.5c0 -35.333 12.167 -64.166 36.5 -86.499s55.833 -33.5 94.5 -33.5c45.333 0 90 18.333 134 55z" />
    <glyph glyph-name="quotesingle" unicode="'" horiz-adv-x="257" 
d="M179 521h-101v191h101v-191z" />
    <glyph glyph-name="parenleft" unicode="(" horiz-adv-x="318" 
d="M258 -25l-68 -69c-29.333 28.667 -50 50.667 -62 66c-16 20.667 -27 41.5 -33 62.5s-9 48.5 -9 82.5v478c0 47.333 7.66699 86 23 116c10 19.333 37 51 81 95l68 -69c-14 -9.33301 -29.667 -27 -47 -53c-15.333 -23.333 -23 -55 -23 -95v-466
c0 -22.667 1.83301 -41 5.5 -55s11.167 -29.333 22.5 -46c16 -23.333 30 -39 42 -47z" />
    <glyph glyph-name="parenright" unicode=")" horiz-adv-x="318" 
d="M231 117c0 -50 -7.66699 -88.665 -23 -115.998c-11.333 -20 -38 -51.667 -80 -95l-70 70c2.66699 3.33301 11.167 12.5 25.5 27.5s24.166 27.833 29.499 38.5c10 20 15 47 15 81v466c0 34 -5 61 -15 81c-7.33301 14.667 -25.666 36.667 -54.999 66l70 70
c30.667 -30.667 51 -52.667 61 -66c16 -20.667 27 -41.334 33 -62.001s9 -48.334 9 -83.001v-478z" />
    <glyph glyph-name="asterisk" unicode="*" horiz-adv-x="484" 
d="M424 466l-37 -65l-111 69l4 -131h-76l5 131l-111 -69l-37 65l115 61l-115 62l37 65l111 -69l-5 130h76l-4 -130l111 69l37 -65l-115 -62z" />
    <glyph glyph-name="plus" unicode="+" 
d="M482 225h-167v-168h-96v168h-168v95h168v167h96v-167h167v-95z" />
    <glyph glyph-name="comma" unicode="," horiz-adv-x="272" 
d="M201 129l-93 -247h-86l61 247h118z" />
    <glyph glyph-name="hyphen" unicode="-" horiz-adv-x="426" 
d="M359 230h-292v95h292v-95z" />
    <glyph glyph-name="period" unicode="." horiz-adv-x="284" 
d="M215 70c0 -20 -7.16699 -37.167 -21.5 -51.5s-31.5 -21.5 -51.5 -21.5s-37.167 7.16699 -51.5 21.5s-21.5 31.166 -21.5 50.499c0 20 7.16699 37.167 21.5 51.5s31.5 21.5 51.5 21.5c19.333 0 36.333 -7.16699 51 -21.5s22 -31.166 22 -50.499z" />
    <glyph glyph-name="slash" unicode="/" horiz-adv-x="380" 
d="M382 786l-285 -860h-97l285 860h97z" />
    <glyph glyph-name="zero" unicode="0" 
d="M472 198c0 -60 -19 -109 -57 -147s-87.333 -57 -148 -57s-110.334 19 -149.001 57s-58 87 -58 147v316c0 60 19.333 109 58 147s88.334 57 149.001 57c60 0 109.167 -19 147.5 -57s57.5 -87 57.5 -147v-316zM371 201v310c0 35.333 -9.5 63.5 -28.5 84.5
s-44.167 31.5 -75.5 31.5c-32 0 -57.5 -10.5 -76.5 -31.5s-28.5 -49.167 -28.5 -84.5v-310c0 -35.333 9.5 -63.5 28.5 -84.5s44.5 -31.5 76.5 -31.5c31.333 0 56.5 10.5 75.5 31.5s28.5 49.167 28.5 84.5z" />
    <glyph glyph-name="one" unicode="1" 
d="M355 0h-102v601l-139 -121v111l139 121h102v-712z" />
    <glyph glyph-name="two" unicode="2" 
d="M477 0l-414.001 0.000976562v91l274 333c25.333 30.667 38 62.334 38 95.001c0 33.333 -9.33301 59.666 -28 78.999s-44 29 -76 29c-66.667 0 -101.667 -36.667 -105 -110h-102c2 35.333 7.33301 63.333 16 84c16 37.333 40.833 66.166 74.5 86.499
s72.834 30.5 117.501 30.5c61.333 0 110.833 -18.333 148.5 -55s56.5 -84.667 56.5 -144c0 -28 -4.66699 -52.833 -14 -74.5s-27 -48.167 -53 -79.5l-223 -274h290v-91z" />
    <glyph glyph-name="three" unicode="3" 
d="M478 201c0 -62.667 -19.8311 -112.833 -59.498 -150.5s-92.834 -56.5 -159.501 -56.5c-67.333 0 -121 19 -161 57c-32.667 31.333 -51.334 78.666 -56.001 141.999h102c6 -72 44.667 -108 116 -108c35.333 0 63.5 10.667 84.5 32s31.5 50.333 31.5 87
c0 37.333 -10.333 66 -31 86s-50 30 -88 30h-17v89h17c34.667 0 61.334 9.33301 80.001 28s28 45 28 79s-9.66699 61 -29 81s-45 30 -77 30c-62 0 -97.667 -34 -107 -102h-102c3.33301 34.667 9.33301 61.334 18 80.001c16 36 41 63.833 75 83.5s73 29.5 117 29.5
c61.333 0 111.166 -18.5 149.499 -55.5s57.5 -84.833 57.5 -143.5c0 -36.667 -7 -66.667 -21 -90s-36.667 -43.666 -68 -60.999c34.667 -17.333 60 -39.333 76 -66s24 -60.334 24 -101.001z" />
    <glyph glyph-name="four" unicode="4" 
d="M497 107h-75v-107h-99v107h-288v95l251 510h110l-250 -510h177v166h99v-166h75v-95z" />
    <glyph glyph-name="five" unicode="5" 
d="M478 236c0 -46 -4.66602 -83.335 -13.999 -112.002s-24.666 -53.667 -45.999 -75c-36.667 -36.667 -86.334 -55 -149.001 -55c-65.333 0 -116 18 -152 54c-30 30 -48 75.333 -54 136h102c6 -35.333 17 -60.666 33 -75.999s39.333 -23 70 -23c32 0 57.333 9.33301 76 28
c22 24 33 65.333 33 124c0 52.667 -8.33301 90.834 -25 114.501s-43.334 35.5 -80.001 35.5c-50.667 0 -84 -21 -100 -63h-93v388h384v-91h-291v-189c28.667 28.667 67.667 43 117 43c54 0 96.667 -15.667 128 -47c40.667 -40.667 61 -104.667 61 -192z" />
    <glyph glyph-name="six" unicode="6" 
d="M476 210c0 -64.667 -19.332 -116.832 -57.999 -156.499s-89.334 -59.5 -152.001 -59.5s-113.334 19.333 -152.001 58s-58 89.334 -58 152.001c0 47.333 17.667 106.666 53 177.999l162 330h109l-153 -307c18.667 8 39.334 12 62.001 12c54.667 0 99.5 -19.333 134.5 -58
s52.5 -88.334 52.5 -149.001zM375.001 206.002c0 38 -10 68.499 -30 91.499s-46.333 34.5 -79 34.5s-58.834 -11.167 -78.501 -33.5s-29.5 -52.166 -29.5 -89.499s9.83301 -67.333 29.5 -90s45.834 -34 78.501 -34s59 11.167 79 33.5s30 51.5 30 87.5z" />
    <glyph glyph-name="seven" unicode="7" 
d="M487 621l-238 -621h-110l239 621h-217v-112h-98v203h424v-91z" />
    <glyph glyph-name="eight" unicode="8" 
d="M486 200c0 -60.667 -20.5 -110.167 -61.5 -148.5s-93.5 -57.5 -157.5 -57.5c-64.667 0 -117.5 19.167 -158.5 57.5s-61.5 87.833 -61.5 148.5c0 38 8.16699 70 24.5 96s40.833 50 73.5 72c-57.333 40 -86 91 -86 153c0 57.333 19.5 104.5 58.5 141.5
s88.833 55.5 149.5 55.5c60 0 109.5 -18.5 148.5 -55.5s58.5 -83.833 58.5 -140.5c0 -64 -28.667 -115.333 -86 -154c32.667 -22 57.167 -46 73.5 -72s24.5 -58 24.5 -96zM372 516c0 32.667 -9.83203 59.332 -29.499 79.999s-44.834 31 -75.501 31s-56 -10.333 -76 -31
s-30 -46.667 -30 -78s10 -57.166 30 -77.499s45.333 -30.5 76 -30.5c30 0 55 10 75 30s30 45.333 30 76zM384.001 200.998c0 34.667 -11.1689 63.5 -33.502 86.5s-50.166 34.5 -83.499 34.5s-61.333 -11.5 -84 -34.5s-34 -51.167 -34 -84.5s11.333 -61.333 34 -84
s50.667 -34 84 -34c32.667 0 60.334 11.333 83.001 34s34 50 34 82z" />
    <glyph glyph-name="nine" unicode="9" 
d="M477 507c0 -46.667 -17.6689 -105.669 -53.002 -177.002l-162 -330h-109l154 307c-19.333 -8 -40.666 -12 -63.999 -12c-54.667 0 -99.5 19.333 -134.5 58s-52.5 88.334 -52.5 149.001c0 64.667 19.333 116.834 58 156.501s89.667 59.5 153 59.5
c62.667 0 113.334 -19.5 152.001 -58.5s58 -89.833 58 -152.5zM374.998 500.998c0 38.667 -9.83301 69.332 -29.5 91.999s-46.167 34 -79.5 34c-32.667 0 -58.834 -11.167 -78.501 -33.5s-29.5 -52.166 -29.5 -89.499s9.83301 -67.333 29.5 -90s45.834 -34 78.501 -34
s59 11.167 79 33.5s30 51.5 30 87.5z" />
    <glyph glyph-name="colon" unicode=":" horiz-adv-x="272" 
d="M209 411c0 -20.667 -7.16699 -38.001 -21.5 -52.001s-31.5 -21 -51.5 -21s-37 7 -51 21s-21 31 -21 51s7 37.167 21 51.5s31 21.5 51 21.5c19.333 0 36.333 -7.16699 51 -21.5s22 -31.166 22 -50.499zM209 70.999c0 -20.667 -7.16699 -38.166 -21.5 -52.499
s-31.5 -21.5 -51.5 -21.5s-37 7.16699 -51 21.5s-21 31.166 -21 50.499c0 20 7 37.167 21 51.5s31 21.5 51 21.5c19.333 0 36.333 -7.16699 51 -21.5s22 -30.833 22 -49.5z" />
    <glyph glyph-name="semicolon" unicode=";" horiz-adv-x="272" 
d="M209 411c0 -20.667 -7.16699 -38.001 -21.5 -52.001s-31.5 -21 -51.5 -21s-37 7 -51 21s-21 31 -21 51s7 37.167 21 51.5s31 21.5 51 21.5c19.333 0 36.333 -7.16699 51 -21.5s22 -31.166 22 -50.499zM201 128.999l-93 -247h-86l61 247h118z" />
    <glyph glyph-name="less" unicode="&#x3c;" 
d="M496 46l-460 183v100l460 183v-102l-347 -131l347 -130v-103z" />
    <glyph glyph-name="equal" unicode="=" 
d="M482 327h-431v95h431v-95zM482 133h-431v95h431v-95z" />
    <glyph glyph-name="greater" unicode="&#x3e;" 
d="M496 229l-460 -183v103l348 130l-348 131v102l460 -183v-100z" />
    <glyph glyph-name="question" unicode="?" horiz-adv-x="510" 
d="M470 528c0 -37.333 -15.999 -78.668 -47.999 -124.001l-77 -108c-12 -16.667 -18 -34.667 -18 -54v-30h-102v35c0 34 11.333 67 34 99l78 106c20.667 28 31 53.667 31 77c0 28 -9.33301 51.333 -28 70s-42 28 -70 28c-29.333 0 -52.5 -8.83301 -69.5 -26.5
s-26.167 -42.5 -27.5 -74.5h-102c2 30.667 7 56.334 15 77.001c15.333 36 39.166 64.167 71.499 84.5s69.833 30.5 112.5 30.5c57.333 0 105 -18 143 -54s57 -81.333 57 -136zM340.001 61.998c0 -18 -6.33301 -33.333 -19 -46s-28 -19 -46 -19s-33.167 6.33301 -45.5 19
s-18.5 27.667 -18.5 45c0 18 6.16699 33.333 18.5 46s27.5 19 45.5 19c17.333 0 32.5 -6.33301 45.5 -19s19.5 -27.667 19.5 -45z" />
    <glyph glyph-name="at" unicode="@" horiz-adv-x="736" 
d="M671 -2l-95 2v50c-20 -21.333 -38.833 -36 -56.5 -44s-40.834 -12 -69.501 -12c-55.333 0 -99.333 18.333 -132 55c-17.333 20 -29.333 43.667 -36 71s-10 67.333 -10 120c0 84.667 14.667 144 44 178c32 38 76.333 57 133 57c46.667 0 88.334 -18.667 125.001 -56v61
c0 47.333 -12.167 83.333 -36.5 108s-59.833 37 -106.5 37h-127c-45.333 0 -80 -12 -104 -36c-24.667 -25.333 -37 -61.666 -37 -108.999v-312c0 -28 3.16699 -49.167 9.5 -63.5s19.833 -29.833 40.5 -46.5l-70 -70c-30.667 25.333 -51 48.666 -61 69.999
c-12 26 -18 61.333 -18 106v317c0 156 77 234 231 234h146c153.333 0 230 -78 230 -234v-483zM574 233c0 54.667 -8.16699 94.333 -24.5 119s-42.166 37 -77.499 37s-61 -12.333 -77 -37s-24 -64 -24 -118s8 -93.333 24 -118s41.667 -37 77 -37s61.166 12.333 77.499 37
s24.5 63.667 24.5 117z" />
    <glyph glyph-name="A" unicode="A" horiz-adv-x="625" 
d="M616 0h-113l-50 143h-281l-50 -143h-114l261 712h87zM424 235l-109 316l-112 -316h221z" />
    <glyph glyph-name="B" unicode="B" horiz-adv-x="663" 
d="M596 200c0 -61.333 -19.167 -110 -57.5 -146s-90.833 -54 -157.5 -54h-288v712h277c64.667 0 116.667 -17.5 156 -52.5s59 -81.5 59 -139.5c0 -72 -32 -123.667 -96 -155c71.333 -33.333 107 -88.333 107 -165zM477 513c0 32 -10.333 57 -31 75s-49 27 -85 27h-160v-204
h160c36 0 64.333 9 85 27s31 43 31 75zM487 206c0 33.333 -10.5 59.667 -31.5 79s-49.5 29 -85.5 29h-169v-217h169c36 0 64.5 9.83301 85.5 29.5s31.5 46.167 31.5 79.5z" />
    <glyph glyph-name="C" unicode="C" horiz-adv-x="574" 
d="M522 78c-34 -30.667 -64.6689 -51.999 -92.002 -63.999c-32 -13.333 -67 -20 -105 -20c-76.667 0 -139.667 25.333 -189 76c-14 14 -25.5 30 -34.5 48s-15.833 34.167 -20.5 48.5s-8 34.666 -10 60.999s-3.16699 46 -3.5 59s-0.5 36.167 -0.5 69.5
c-0.666992 2.66699 -1 7.66699 -1 15s0.333008 12 1 14c0 70 4.5 123.167 13.5 159.5s27.5 68.833 55.5 97.5c50.667 50.667 113.334 76 188.001 76c38.667 0 74 -6.66699 106 -20c27.333 -12 58 -33.333 92 -64l-72 -73c-22 22 -42.167 37.5 -60.5 46.5
s-40.166 13.5 -65.499 13.5c-43.333 0 -78.666 -14.333 -105.999 -43c-12.667 -14 -22.334 -33 -29.001 -57s-10.5 -46.167 -11.5 -66.5s-1.5 -49.833 -1.5 -88.5v-32c0 -61.333 2.83301 -105.5 8.5 -132.5s16.834 -49.5 33.501 -67.5c26.667 -28.667 62 -43 106 -43
c25.333 0 47.166 4.5 65.499 13.5s38.5 24.5 60.5 46.5z" />
    <glyph glyph-name="D" unicode="D" horiz-adv-x="666" 
d="M599 362c0 -74.667 -2.99805 -131.999 -8.99805 -171.999c-8 -48.667 -28.667 -89.667 -62 -123c-44.667 -44.667 -106.334 -67 -185.001 -67h-250v712h250c64 0 118.167 -15.833 162.5 -47.5s72.166 -77.5 83.499 -137.5c6.66699 -34.667 10 -69.334 10 -104.001v-61z
M490.002 341.001v43c0 54 -2.83301 93.833 -8.5 119.5s-15.5 46.834 -29.5 63.501c-26.667 32 -67.334 48 -122.001 48h-129v-518h129c54.667 0 95.334 16 122.001 48c14 16.667 23.833 39.167 29.5 67.5s8.5 71.166 8.5 128.499z" />
    <glyph glyph-name="E" unicode="E" horiz-adv-x="603" 
d="M549 0h-456v712h456v-97h-348v-208h296v-96h-296v-214h348v-97z" />
    <glyph glyph-name="F" unicode="F" horiz-adv-x="585" 
d="M549 615h-348v-217h296v-97h-296v-301h-108v712h456v-97z" />
    <glyph glyph-name="G" unicode="G" horiz-adv-x="641" 
d="M580 277c0 -48 -4.83105 -87.333 -14.498 -118s-25.834 -58.334 -48.501 -83.001c-51.333 -54.667 -116 -82 -194 -82c-75.333 0 -137.666 25.333 -186.999 76c-34 34.667 -54 74.334 -60 119.001c-6 37.333 -9 93 -9 167v29c0 69.333 4.5 122.5 13.5 159.5
s27.5 69.5 55.5 97.5c50 50.667 113.333 76 190 76c42.667 0 80.667 -7.33301 114 -22c28 -12.667 61 -36.667 99 -72l-74 -73c-29.333 29.333 -55 48.666 -77 57.999c-19.333 8 -40.333 12 -63 12c-35.333 0 -65.833 -9.5 -91.5 -28.5s-41.834 -45.5 -48.501 -79.5
c-6 -29.333 -9 -81.666 -9 -156.999v-23c0 -61.333 2.66699 -105.5 8 -132.5s16.333 -49.167 33 -66.5c27.333 -28.667 62.666 -43 105.999 -43c48 0 86.333 17 115 51c22.667 28.667 34 66 34 112v39h-149v92h257v-108z" />
    <glyph glyph-name="H" unicode="H" horiz-adv-x="690" 
d="M598 0h-109v311h-288v-311h-108v712h108v-305h288v305h109v-712z" />
    <glyph glyph-name="I" unicode="I" horiz-adv-x="294" 
d="M201 0h-108v712h108v-712z" />
    <glyph glyph-name="J" unicode="J" horiz-adv-x="506" 
d="M423 225c0 -69.333 -21.833 -125.167 -65.5 -167.5s-101.5 -63.5 -173.5 -63.5c-36.667 0 -69 6 -97 18c-24 9.33301 -48.667 26.333 -74 51l72 71c16 -16 31.333 -27.167 46 -33.5s32.667 -9.5 54 -9.5c41.333 0 73.333 12.333 96 37s34 59.667 34 105v479h108v-487z
" />
    <glyph glyph-name="K" unicode="K" horiz-adv-x="658" 
d="M648 0h-127l-200 351l-120 -144v-207h-108v712h108v-358l290 358h133l-231 -279z" />
    <glyph glyph-name="L" unicode="L" horiz-adv-x="574" 
d="M544 0h-451v712h108v-615h343v-97z" />
    <glyph glyph-name="M" unicode="M" horiz-adv-x="813" 
d="M721 0h-109v476l-164 -347h-80l-167 347v-476h-108v712h107l208 -443l205 443h108v-712z" />
    <glyph glyph-name="N" unicode="N" horiz-adv-x="721" 
d="M628 0h-98l-329 502v-502h-108v712h98l329 -501v501h108v-712z" />
    <glyph glyph-name="O" unicode="O" horiz-adv-x="647" 
d="M580 356c0 -53.333 -0.668945 -92.3301 -2.00195 -116.997s-7.33301 -53.334 -18 -86.001s-27 -60.334 -49 -83.001c-49.333 -50.667 -112 -76 -188 -76c-75.333 0 -137.666 25.333 -186.999 76c-22 22 -38.333 50 -49 84s-16.667 63 -18 87s-2 60.667 -2 110v38
c0 64.667 4.5 116 13.5 154s27.5 71 55.5 99c50.667 50.667 113 76 187 76c74.667 0 137.334 -25.333 188.001 -76c46 -46.667 69 -125.334 69 -236.001v-50zM470.998 363.003c0 62.667 -2.33008 109.166 -6.99707 139.499s-16.334 55.166 -35.001 74.499
c-28 29.333 -63.333 44 -106 44s-78 -14.667 -106 -44c-13.333 -14 -23.166 -33.167 -29.499 -57.5s-9.83301 -46 -10.5 -65s-1 -50.167 -1 -93.5v-29.5v-30.5c0 -5.33301 0.166992 -14.666 0.5 -27.999s0.833008 -23 1.5 -29s1.66699 -14.333 3 -25s3 -19.167 5 -25.5
l7 -21.5c2.66699 -8 6 -14.833 10 -20.5s8.66699 -11.167 14 -16.5c29.333 -29.333 64.666 -44 105.999 -44c43.333 0 78.666 14.667 105.999 44c13.333 14 23.166 32.333 29.499 55s10 44.834 11 66.501s1.5 57.167 1.5 106.5z" />
    <glyph glyph-name="P" unicode="P" horiz-adv-x="629" 
d="M591 496c0 -64 -21.167 -116 -63.5 -156s-97.166 -60 -164.499 -60h-162v-280h-108v712h270c67.333 0 122.166 -20 164.499 -60s63.5 -92 63.5 -156zM483 496c0 36.667 -11.333 65.667 -34 87s-53.667 32 -93 32h-155v-238h155c38.667 0 69.5 10.667 92.5 32
s34.5 50.333 34.5 87z" />
    <glyph glyph-name="Q" unicode="Q" horiz-adv-x="646" 
d="M602 27l-59.002 -59.0039l-71 70c-46 -29.333 -95.667 -44 -149 -44c-75.333 0 -137.666 25.333 -186.999 76c-34.667 34.667 -54.667 72.334 -60 113.001c-6 50 -9 103 -9 159v59c0 66.667 4.83301 116.834 14.5 150.501s27.834 63.834 54.501 90.501
c50.667 50.667 113 76 187 76c76 0 138.667 -25.333 188 -76c34.667 -35.333 54.667 -73.333 60 -114c6 -37.333 9 -94.666 9 -171.999v-30c0 -80.667 -5.66699 -138 -17 -172c-4.66699 -15.333 -14.667 -34.333 -30 -57zM470.998 334.996l-0.00195312 41
c0 64 -2.83301 109 -8.5 135s-16.834 48 -33.501 66c-27.333 29.333 -62.666 44 -105.999 44s-78.666 -14.667 -105.999 -44c-14 -14.667 -24.167 -33.5 -30.5 -56.5s-9.66602 -40.833 -9.99902 -53.5s-0.5 -36.334 -0.5 -71.001v-63c0 -61.333 2.66699 -105.166 8 -131.499
s16.333 -48.5 33 -66.5c27.333 -29.333 62.666 -44 105.999 -44c26 0 50.333 7.66699 73 23l-75 75l60 60l69 -70c2 4.66699 4 9.66699 6 15s3.66699 10.333 5 15s2.5 10 3.5 16s1.83301 10.833 2.5 14.5s1.33398 9 2.00098 16s1.16699 12 1.5 15s0.5 8.5 0.5 16.5v15.5
v16.5v16z" />
    <glyph glyph-name="R" unicode="R" horiz-adv-x="655" 
d="M612 0h-125.999l-150 300h-135v-300h-108v712h276c65.333 0 118.5 -19.167 159.5 -57.5s61.5 -88.5 61.5 -150.5s-21.667 -111.667 -65 -149c-18.667 -16 -44.334 -29.333 -77.001 -40zM482.001 503c0 34.667 -10.833 62 -32.5 82s-51.167 30 -88.5 30h-160v-223h160
c37.333 0 66.833 10 88.5 30s32.5 47 32.5 81z" />
    <glyph glyph-name="S" unicode="S" horiz-adv-x="590" 
d="M538 204c0 -65.333 -23.665 -116.665 -70.998 -153.998s-112.333 -56 -195 -56c-50 0 -93.833 7.33301 -131.5 22s-74.5 38.667 -110.5 72l72 72c27.333 -25.333 54.666 -43.166 81.999 -53.499s60 -15.5 98 -15.5c48 0 84.833 9.5 110.5 28.5s38.5 46.167 38.5 81.5
c0 34 -8.83301 58.5 -26.5 73.5s-44.167 24.833 -79.5 29.5l-84 12c-124.667 18 -187 82 -187 192c0 65.333 21.667 116.666 65 153.999s103.333 56 180 56c44 0 82.5 -6.33301 115.5 -19s65.833 -33.334 98.5 -62.001l-69 -68c-43.333 36.667 -93.333 55 -150 55
c-42.667 0 -75.834 -9.83301 -99.501 -29.5s-35.5 -46.834 -35.5 -81.501c0 -54.667 35.667 -87.667 107 -99l81 -12c62 -9.33301 109.333 -29.333 142 -60s49 -76.667 49 -138z" />
    <glyph glyph-name="T" unicode="T" horiz-adv-x="560" 
d="M530 615h-196v-615h-108v615h-196v97h500v-97z" />
    <glyph glyph-name="U" unicode="U" horiz-adv-x="675" 
d="M593 240c0 -71.333 -24 -130.166 -72 -176.499s-109.333 -69.5 -184 -69.5c-74 0 -135 23.167 -183 69.5s-72 105.166 -72 176.499v472h109v-467c0 -46.667 13.167 -84 39.5 -112s61.833 -42 106.5 -42c45.333 0 81.333 14 108 42s40 65.333 40 112v467h108v-472z" />
    <glyph glyph-name="V" unicode="V" horiz-adv-x="564" 
d="M559 712l-235 -712h-84l-235 712h113l164 -518l163 518h114z" />
    <glyph glyph-name="W" unicode="W" horiz-adv-x="871" 
d="M860 712l-187 -712h-94l-144 499l-144 -499h-94l-186 712h114l124 -510l143 510h86l144 -510l124 510h114z" />
    <glyph glyph-name="X" unicode="X" horiz-adv-x="578" 
d="M568 0h-125l-155 273l-155 -273h-123l219 365l-205 347h124l140 -255l141 255h124l-206 -347z" />
    <glyph glyph-name="Y" unicode="Y" horiz-adv-x="544" 
d="M538 712l-212 -419v-293h-108v293l-213 419h118l150 -313l148 313h117z" />
    <glyph glyph-name="Z" unicode="Z" horiz-adv-x="552" 
d="M504 0h-456v93l330 522h-316v97h442v-88l-332 -527h332v-97z" />
    <glyph glyph-name="bracketleft" unicode="[" horiz-adv-x="346" 
d="M304 -74h-218v860h218v-91h-116v-678h116v-91z" />
    <glyph glyph-name="backslash" unicode="\" horiz-adv-x="380" 
d="M380 -74h-98l-282 852h97z" />
    <glyph glyph-name="bracketright" unicode="]" horiz-adv-x="346" 
d="M261 -74h-218v90h118v680h-118v90h218v-860z" />
    <glyph glyph-name="asciicircum" unicode="^" 
d="M485 401h-106l-112 207l-112 -207h-106l172 318h93z" />
    <glyph glyph-name="underscore" unicode="_" horiz-adv-x="600" 
d="M600 -172h-600v70h600v-70z" />
    <glyph glyph-name="grave" unicode="`" horiz-adv-x="500" 
d="M302 599h-77l-111 162h112z" />
    <glyph glyph-name="a" unicode="a" horiz-adv-x="530" 
d="M454 0l-100.001 0.000976562v46c-20 -20 -39.667 -33.5 -59 -40.5s-44.666 -10.5 -75.999 -10.5c-56.667 0 -100.167 13.167 -130.5 39.5s-45.5 64.166 -45.5 113.499c0 46 15.5 82 46.5 108s73.5 39 127.5 39h136v37c0 32.667 -9 56.5 -27 71.5s-47 22.5 -87 22.5
c-28 0 -50.667 -4.33301 -68 -13c-13.333 -6 -27 -18 -41 -36l-67 63c25.333 27.333 47.333 45 66 53c27.333 13.333 65 20 113 20c141.333 0 212 -58 212 -174v-339zM352.999 183.001l0.000976562 40h-120c-60.667 0 -91 -24 -91 -72s33.333 -72 100 -72
c39.333 0 67.666 8 84.999 24s26 42.667 26 80z" />
    <glyph glyph-name="b" unicode="b" horiz-adv-x="553" 
d="M495 252c0 -104 -18.667 -174.668 -56 -212.001c-30.667 -30.667 -72.667 -46 -126 -46c-30 0 -54.333 4.33301 -73 13s-38.334 24.334 -59.001 47.001v-54h-100v712h102v-256c34 38 77 57 129 57c53.333 0 95.666 -15 126.999 -45
c16.667 -16.667 29.334 -38.667 38.001 -66s13.834 -51.333 15.501 -72s2.5 -46.667 2.5 -78zM394 253.999c0 60.667 -8.16602 103.834 -24.499 129.501s-43.5 38.5 -81.5 38.5c-41.333 0 -70 -16.333 -86 -49c-12.667 -26 -19 -67 -19 -123
c0 -58.667 8.33301 -100.834 25 -126.501s43.667 -38.5 81 -38.5s64.166 13 80.499 39s24.5 69.333 24.5 130z" />
    <glyph glyph-name="c" unicode="c" horiz-adv-x="485" 
d="M448 66c-26 -26 -51.001 -44.332 -75.001 -54.999c-25.333 -11.333 -55.666 -17 -90.999 -17c-71.333 0 -127 23 -167 69s-60 110.333 -60 193c0 80 20.167 142.833 60.5 188.5s95.833 68.5 166.5 68.5c34 0 64.333 -5.66699 91 -17c24 -10.667 49 -29 75 -55l-69 -67
c-16.667 17.333 -32 29.666 -46 36.999s-31.333 11 -52 11c-82.667 0 -124 -56 -124 -168c0 -112.667 41.333 -169 124 -169c21.333 0 38.5 3.66699 51.5 11s28.5 20 46.5 38z" />
    <glyph glyph-name="d" unicode="d" horiz-adv-x="553" 
d="M472 0l-99.999 -0.000976562v54c-20 -22 -39.5 -37.5 -58.5 -46.5s-43.5 -13.5 -73.5 -13.5c-54.667 0 -97 15 -127 45c-37.333 37.333 -56 109 -56 215v15c0 94.667 18.667 160.667 56 198c30.667 30.667 73 46 127 46c28.667 0 52.667 -4.16699 72 -12.5
s38.666 -23.166 57.999 -44.499v256h102v-712zM370.001 252.999c0 60.667 -8.16602 104.001 -24.499 130.001s-43.5 39 -81.5 39c-41.333 0 -70 -16.333 -86 -49c-12.667 -26 -19 -67 -19 -123c0 -58.667 8.33301 -100.834 25 -126.501s43.667 -38.5 81 -38.5
s64.166 13 80.499 39s24.5 69 24.5 129z" />
    <glyph glyph-name="e" unicode="e" horiz-adv-x="539" 
d="M484 223h-328.001c2 -94.667 46.333 -142 133 -142c42.667 0 82.334 17.667 119.001 53l64 -61c-29.333 -28.667 -57.833 -49 -85.5 -61s-61.5 -18 -101.5 -18c-76 0 -133.333 22.167 -172 66.5s-58 109.5 -58 195.5c0 79.333 19.167 142 57.5 188s90.833 69 157.5 69
c65.333 0 117.333 -22 156 -66s58 -103.333 58 -178v-46zM383.999 295c-6.66699 88.667 -44.668 133 -114.001 133c-38 0 -66.167 -12.5 -84.5 -37.5s-28.166 -56.833 -29.499 -95.5h228z" />
    <glyph glyph-name="f" unicode="f" horiz-adv-x="328" 
d="M299 420l-100 -0.000976562v-420h-102v420h-58v78h58v78c0 42.667 12.667 76.834 38 102.501s59 38.5 101 38.5h63v-87h-45c-36.667 0 -55 -19.667 -55 -59v-73h100v-78z" />
    <glyph glyph-name="g" unicode="g" horiz-adv-x="549" 
d="M468 2c0 -64.667 -20.167 -116.334 -60.5 -155.001s-94.5 -58 -162.5 -58c-36.667 0 -67.5 5 -92.5 15s-51.833 27.333 -80.5 52l65 64c33.333 -29.333 69.333 -44 108 -44c38 0 67.667 11.333 89 34s32 54.334 32 95.001v65c-34 -38.667 -76.667 -58 -128 -58
c-53.333 0 -95 15 -125 45c-37.333 38 -56 106.667 -56 206v16c0 88 18.667 150.667 56 188c30.667 30.667 72.667 46 126 46c28 0 51.833 -4.66699 71.5 -14s39.167 -24.333 58.5 -45v53h99v-505zM366 262c0 56.667 -8 97.501 -24 122.501s-42.667 37.5 -80 37.5
c-36.667 0 -63 -12.5 -79 -37.5s-24 -65.5 -24 -121.5c0 -56.667 8.16699 -97.334 24.5 -122.001s42.833 -37 79.5 -37c36 0 62.167 12.333 78.5 37s24.5 65 24.5 121z" />
    <glyph glyph-name="h" unicode="h" horiz-adv-x="566" 
d="M490 0l-101.998 0.00292969v311c0 35.333 -8.83301 62.666 -26.5 81.999s-42.834 29 -75.501 29c-32 0 -57.167 -9.83301 -75.5 -29.5s-27.5 -46.834 -27.5 -81.501v-311h-102v712h102v-256c38 38 82.333 57 133 57c53.333 0 95.666 -16.833 126.999 -50.5
s47 -78.834 47 -135.501v-327z" />
    <glyph glyph-name="i" unicode="i" horiz-adv-x="264" 
d="M198 674c0 -19.333 -6.33203 -35.501 -18.999 -48.501s-28.334 -19.5 -47.001 -19.5c-18 0 -33.5 6.5 -46.5 19.5s-19.5 28.5 -19.5 46.5c0 18.667 6.5 34.334 19.5 47.001s28.5 19 46.5 19s33.5 -6.33301 46.5 -19s19.5 -27.667 19.5 -45zM183.001 -0.000976562h-102
v507h102v-507z" />
    <glyph glyph-name="j" unicode="j" horiz-adv-x="264" 
d="M198 674c0 -19.333 -6.33203 -35.501 -18.999 -48.501s-28.334 -19.5 -47.001 -19.5c-18 0 -33.5 6.5 -46.5 19.5s-19.5 28.5 -19.5 46.5c0 18.667 6.5 34.334 19.5 47.001s28.5 19 46.5 19s33.5 -6.33301 46.5 -19s19.5 -27.667 19.5 -45zM183.001 -67.001
c0 -43.333 -12.5 -77.667 -37.5 -103s-58.833 -38 -101.5 -38h-63v88h45c19.333 0 33.333 4.66699 42 14s13 24.333 13 45v568h102v-574z" />
    <glyph glyph-name="k" unicode="k" horiz-adv-x="548" 
d="M526 0h-126l-142 234l-75 -85v-149h-102v712h102v-439l197 234h124l-176 -199z" />
    <glyph glyph-name="l" unicode="l" horiz-adv-x="264" 
d="M183 0h-102v712h102v-712z" />
    <glyph glyph-name="m" unicode="m" horiz-adv-x="877" 
d="M802 0l-101.997 -0.000976562v309c0 35.333 -9 63 -27 83s-43.333 30 -76 30c-32 0 -57.5 -9.66699 -76.5 -29s-28.5 -45.333 -28.5 -78v-315h-101v309c0 35.333 -9.16699 63 -27.5 83s-43.5 30 -75.5 30c-32.667 0 -58.334 -10 -77.001 -30s-28 -47.667 -28 -83v-309
h-102v507h101v-51c40 38 85 57 135 57c60 0 107.667 -24.667 143 -74c23.333 26 47.166 44.833 71.499 56.5s53.166 17.5 86.499 17.5c56 0 100.667 -17.167 134 -51.5s50 -80.166 50 -137.499v-324z" />
    <glyph glyph-name="n" unicode="n" horiz-adv-x="568" 
d="M492 0l-102 0.000976562v309c0 35.333 -9 63 -27 83s-43.333 30 -76 30s-58.167 -10 -76.5 -30s-27.5 -47.667 -27.5 -83v-309h-102v507h101v-51c38 38 82.667 57 134 57c54.667 0 97.667 -16.833 129 -50.5s47 -79.834 47 -138.501v-324z" />
    <glyph glyph-name="o" unicode="o" horiz-adv-x="537" 
d="M479 256c0 -51.333 -4.5 -92.166 -13.5 -122.499s-24.167 -56.833 -45.5 -79.5c-38.667 -40 -89.334 -60 -152.001 -60c-62 0 -112.333 20 -151 60c-21.333 22.667 -36.666 49.167 -45.999 79.5s-14 70.5 -14 120.5c0 49.333 4.66699 89.166 14 119.499
s24.666 56.833 45.999 79.5c38.667 40 89 60 151 60c62.667 0 113.334 -20 152.001 -60c21.333 -22 36.5 -48.167 45.5 -78.5s13.5 -69.833 13.5 -118.5zM378 252c0 67.333 -10.666 113 -31.999 137c-20 22 -46 33 -78 33c-32.667 0 -58.667 -11.333 -78 -34
c-20.667 -25.333 -31 -71.333 -31 -138c0 -64 11 -108.333 33 -133c18 -21.333 43.333 -32 76 -32c33.333 0 59.666 11.333 78.999 34c20.667 24.667 31 69 31 133z" />
    <glyph glyph-name="p" unicode="p" horiz-adv-x="553" 
d="M495 252c0 -104 -18.666 -174.667 -55.999 -212c-30.667 -30.667 -72.667 -46 -126 -46c-28.667 0 -52.667 4.33301 -72 13s-38.666 23.667 -57.999 45v-257h-102v712h100v-53c21.333 22 41.166 37.333 59.499 46s42.166 13 71.499 13c94.667 0 152 -43.667 172 -131
c7.33301 -32.667 11 -76 11 -130zM394.001 254c0 60.667 -8.16602 103.834 -24.499 129.501s-43.5 38.5 -81.5 38.5c-41.333 0 -70 -16.333 -86 -49c-12.667 -26 -19 -67 -19 -123c0 -58.667 8.33301 -100.834 25 -126.501s43.667 -38.5 81 -38.5s64.166 13 80.499 39
s24.5 69.333 24.5 130z" />
    <glyph glyph-name="q" unicode="q" horiz-adv-x="553" 
d="M472 -205h-101.999v257c-34 -38.667 -77.333 -58 -130 -58c-54.667 0 -97 15 -127 45c-37.333 37.333 -56 109 -56 215v16c0 94 18.667 159.667 56 197c30.667 30.667 73 46 127 46c29.333 0 53.666 -4.33301 72.999 -13s39 -24 59 -46v53h100v-712zM370.001 253
c0 60.667 -8.16602 104.001 -24.499 130.001s-43.5 39 -81.5 39c-41.333 0 -70 -16.333 -86 -49c-12.667 -26 -19 -67 -19 -123c0 -58.667 8.33301 -100.834 25 -126.501s43.667 -38.5 81 -38.5s64.166 13 80.499 39s24.5 69 24.5 129z" />
    <glyph glyph-name="r" unicode="r" horiz-adv-x="438" 
d="M437 465l-77 -77.001c-22.667 22.667 -47.334 34 -74.001 34c-30.667 0 -55.5 -10.5 -74.5 -31.5s-28.5 -48.5 -28.5 -82.5v-308h-102v507h101v-55c34.667 40.667 80.334 61 137.001 61c25.333 0 46.5 -3.66699 63.5 -11s35.167 -19.666 54.5 -36.999z" />
    <glyph glyph-name="s" unicode="s" horiz-adv-x="499" 
d="M455 155c0 -51.333 -19.333 -91.001 -58 -119.001s-93.334 -42 -164.001 -42c-47.333 0 -88.666 7.33301 -123.999 22c-23.333 9.33301 -49 26.333 -77 51l67 67c40.667 -35.333 89 -53 145 -53c36 0 63.667 6.16699 83 18.5s29 29.833 29 52.5
c0 35.333 -22.667 55 -68 59l-82 7c-99.333 8 -149 54 -149 138c0 48.667 17.833 87 53.5 115s84.167 42 145.5 42c43.333 0 82 -6.66699 116 -20c20.667 -7.33301 42 -19.666 64 -36.999l-64 -65c-31.333 24.667 -72 37 -122 37c-63.333 0 -95 -22 -95 -66
c0 -34 23.333 -53 70 -57l80 -7c100 -9.33301 150 -57 150 -143z" />
    <glyph glyph-name="t" unicode="t" horiz-adv-x="342" 
d="M293 0l-61 -0.000976562c-42 0 -75.667 12.833 -101 38.5s-38 59.834 -38 102.501v279h-58v78h58v154h102v-154h98v-78h-98v-274c0 -39.333 18.667 -59 56 -59h42v-87z" />
    <glyph glyph-name="u" unicode="u" horiz-adv-x="568" 
d="M486 0h-99.0039v51c-21.333 -20.667 -42.166 -35.334 -62.499 -44.001s-45.166 -13 -74.499 -13c-54 0 -96.5 16.833 -127.5 50.5s-46.5 79.834 -46.5 138.501v324h102v-309c0 -35.333 8.83301 -63 26.5 -83s42.834 -30 75.501 -30s58.334 10 77.001 30s28 47.667 28 83
v309h101v-507z" />
    <glyph glyph-name="v" unicode="v" horiz-adv-x="471" 
d="M463 507l-186 -507h-83l-187 507h109l119 -358l120 358h108z" />
    <glyph glyph-name="w" unicode="w" horiz-adv-x="742" 
d="M735 507l-157 -507h-88l-119 354l-118 -354h-88l-158 507h109l98 -358l118 358h78l119 -358l97 358h109z" />
    <glyph glyph-name="x" unicode="x" horiz-adv-x="503" 
d="M481 0h-122l-107 173l-107 -173h-123l174 259l-167 248h123l100 -165l100 165h122l-167 -248z" />
    <glyph glyph-name="y" unicode="y" horiz-adv-x="471" 
d="M464 507l-224 -608c-24 -66.667 -71 -100 -141 -100h-41v92h26c21.333 0 37 3.5 47 10.5s18.667 21.167 26 42.5l28 80l-178 483h109l121 -358l118 358h109z" />
    <glyph glyph-name="z" unicode="z" horiz-adv-x="469" 
d="M421 0h-378v81l252 335h-238v91h364v-81l-254 -335h254v-91z" />
    <glyph glyph-name="braceleft" unicode="{" horiz-adv-x="407" 
d="M361 -74l-70 0.00195312c-48.667 0 -84.667 11.333 -108 34s-35 57.667 -35 105v167c0 52.667 -22 79 -66 79h-37v90h37c44 0 66 26.333 66 79v167c0 92.667 47.667 139 143 139h70v-91h-38c-30.667 0 -50.5 -4.83301 -59.5 -14.5s-13.5 -30.834 -13.5 -63.501v-161
c0 -26 -5 -46.333 -15 -61s-27 -27.667 -51 -39c24 -11.333 41 -24.333 51 -39s15 -35 15 -61v-161c0 -32.667 4.5 -53.834 13.5 -63.501s28.833 -14.5 59.5 -14.5h38v-91z" />
    <glyph glyph-name="bar" unicode="|" horiz-adv-x="338" 
d="M220 -74h-102v860h102v-860z" />
    <glyph glyph-name="braceright" unicode="}" horiz-adv-x="407" 
d="M361 311h-36c-44 0 -66 -26.333 -66 -79v-167c0 -92.667 -47.667 -139 -143 -139h-71v91h39c30.667 0 50.5 5 59.5 15s13.5 31 13.5 63v161c0 26 5 46.333 15 61s27 27.667 51 39c-24 11.333 -41 24.333 -51 39s-15 35 -15 61v161c0 32 -4.5 53 -13.5 63
s-28.833 15 -59.5 15h-39v91h71c48.667 0 84.667 -11.333 108 -34s35 -57.667 35 -105v-167c0 -52.667 22 -79 66 -79h36v-90z" />
    <glyph glyph-name="asciitilde" unicode="~" 
d="M511 280c-20.667 -20 -36.666 -34.334 -47.999 -43.001s-24.666 -16.667 -39.999 -24c-16.667 -7.33301 -36 -11 -58 -11c-27.333 0 -61 9 -101 27l-20 9c-30.667 14 -55.334 21 -74.001 21c-15.333 0 -28.5 -2.83301 -39.5 -8.5s-25.833 -17.5 -44.5 -35.5l-63 64
c29.333 29.333 54.333 49.333 75 60c22 12 45.333 18 70 18c31.333 0 69 -11 113 -33c0.666992 0 2.16699 -0.666992 4.5 -2s4.83301 -2.66602 7.5 -3.99902l4 -2c23.333 -10.667 45 -16 65 -16c15.333 0 28.666 3 39.999 9s26 17.667 44 35z" />
    <glyph glyph-name="nbspace" unicode="&#xa0;" horiz-adv-x="240" 
 />
    <glyph glyph-name="sterling" unicode="&#xa3;" 
d="M496 0l-411.002 0.000976562v313h-62v78h62v96c0 69.333 22 125.166 66 167.499s102 63.5 174 63.5c65.333 0 122.333 -23 171 -69l-73 -71c-16.667 16.667 -32.167 28 -46.5 34s-32.166 9 -53.499 9c-41.333 0 -73.166 -12.333 -95.499 -37s-33.5 -59.667 -33.5 -105
v-88h129v-78h-129v-216h302v-97z" />
    <glyph glyph-name="currency" unicode="&#xa4;" 
d="M502 63c-48 -46 -105.001 -68.999 -171.001 -68.999c-72 0 -130 21 -174 63s-66 98 -66 168v56h-61v60h61v46h-61v60h61v40c0 69.333 22 125.166 66 167.499s102 63.5 174 63.5c64 0 118.333 -20.333 163 -61l-65 -78c-32 27.333 -61.667 41 -89 41
c-93.333 0 -140 -47 -140 -141v-32h183l-17 -60h-166v-46h153l-17 -60h-136v-48c0 -44.667 10.833 -79.5 32.5 -104.5s53.834 -37.5 96.501 -37.5c21.333 0 39 3.16699 53 9.5s29.667 17.5 47 33.5z" />
    <glyph glyph-name="brokenbar" unicode="&#xa6;" horiz-adv-x="344" 
d="M220 436h-102v350h102v-350zM220 -74h-102v350h102v-350z" />
    <glyph glyph-name="section" unicode="&#xa7;" horiz-adv-x="544" 
d="M472 268c0 -66 -32.334 -119.33 -97.001 -159.997c59.333 -30.667 89 -77.667 89 -141c0 -52.667 -18 -95.5 -54 -128.5s-82.667 -49.5 -140 -49.5c-60.667 0 -108.334 17.333 -143.001 52c-29.333 29.333 -45.666 68.666 -48.999 117.999h100
c6 -52.667 37.333 -79 94 -79c28 0 50.333 7.5 67 22.5s25 34.833 25 59.5c0 44.667 -26.333 74.667 -79 90l-70 21c-94 28 -141 88.333 -141 181c0 68 32.333 121.667 97 161c-56 30 -84 74 -84 132c0 51.333 17.167 92.666 51.5 123.999s79.5 47 135.5 47
c60 0 106.667 -16.667 140 -50c27.333 -27.333 42.666 -65.666 45.999 -114.999h-97c-3.33301 27.333 -12.166 47 -26.499 59s-35.833 18 -64.5 18c-27.333 0 -48.666 -6.83301 -63.999 -20.5s-23 -32.834 -23 -57.501c0 -39.333 25 -66.333 75 -81l70 -21
c94.667 -28.667 142 -89.334 142 -182.001zM371.999 260.003c0 33.333 -8.83105 59.834 -26.498 79.501s-41.834 29.5 -72.501 29.5c-30 0 -54.167 -9.66699 -72.5 -29s-27.5 -45.333 -27.5 -78s9 -58.834 27 -78.501s42.333 -29.5 73 -29.5
c29.333 0 53.166 9.66699 71.499 29s27.5 45 27.5 77z" />
    <glyph glyph-name="copyright" unicode="&#xa9;" horiz-adv-x="862" 
d="M793 363c0 -103.333 -35 -190.667 -105 -262s-155.667 -107 -257 -107c-100 0 -185.333 35.333 -256 106s-106 156 -106 256s35.333 185.333 106 256s156 106 256 106c98 0 182.833 -35.167 254.5 -105.5s107.5 -153.5 107.5 -249.5zM720 349.999
c0 85.333 -27.667 156.668 -83 214.001s-124 86 -206 86c-81.333 0 -149.833 -28.333 -205.5 -85s-83.5 -126.334 -83.5 -209.001s27.833 -152.334 83.5 -209.001s124.167 -85 205.5 -85c79.333 0 147.333 28.333 204 85s85 124.334 85 203.001zM568 209.001
c-23.333 -20.667 -44.335 -34.333 -63.002 -41c-18 -7.33301 -40.333 -11 -67 -11c-55.333 0 -99.166 17.833 -131.499 53.5s-48.5 84.167 -48.5 145.5c0 60.667 16.167 109.167 48.5 145.5s75.833 54.5 130.5 54.5c23.333 0 45 -3.66699 65 -11
c18.667 -6.66699 40.667 -20.667 66 -42l-46 -46c-28 24 -56.333 36 -85 36c-35.333 0 -62.166 -12 -80.499 -36s-27.5 -58.667 -27.5 -104c0 -42.667 9.5 -75.5 28.5 -98.5s45.833 -34.5 80.5 -34.5c28.667 0 56.667 11.667 84 35z" />
    <glyph glyph-name="guillemotleft" unicode="&#xab;" horiz-adv-x="592" 
d="M520 42l-230 230l230 229v-123l-108 -106l108 -107v-123zM267 42l-230 230l230 229v-123l-107 -106l107 -107v-123z" />
    <glyph glyph-name="logicalnot" unicode="&#xac;" 
d="M484 98h-94v141h-342v95h436v-236z" />
    <glyph glyph-name="registered" unicode="&#xae;" horiz-adv-x="428" 
d="M402 533c0 -53.333 -18.167 -98.5 -54.5 -135.5s-80.833 -55.5 -133.5 -55.5c-52 0 -96.333 18.333 -133 55s-55 81 -55 133s18.333 96.333 55 133s81 55 133 55c50.667 0 94.667 -18.333 132 -55s56 -80 56 -130zM365 527c0 44.667 -14.5 82.002 -43.5 112.002
s-64.833 45 -107.5 45c-42 0 -77.667 -15 -107 -45s-44 -66.333 -44 -109s14.667 -78.834 44 -108.501s65 -44.5 107 -44.5c41.333 0 76.833 14.667 106.5 44s44.5 64.666 44.5 105.999zM296 429.002h-42.001l-41 81h-27v-81h-37v203h76c18.667 0 34.334 -6 47.001 -18
s19 -27 19 -45c0 -12 -3.66699 -23 -11 -33s-17 -17 -29 -21zM253.999 570.002c0 8.66699 -3.16699 15.833 -9.5 21.5s-14.166 8.5 -23.499 8.5h-35v-61h35c9.33301 0 17.166 3 23.499 9s9.5 13.333 9.5 22z" />
    <glyph glyph-name="degree" unicode="&#xb0;" horiz-adv-x="471" 
d="M410 552c0 -49.333 -16.8311 -91.167 -50.498 -125.5s-74.834 -51.5 -123.501 -51.5s-90 17 -124 51s-51 75 -51 123c0 48.667 17 90 51 124s75.333 51 124 51c47.333 0 88.166 -17 122.499 -51s51.5 -74.333 51.5 -121zM326.002 546.999
c0 27.333 -8.66797 50 -26.001 68s-39 27 -65 27s-47.667 -8.83301 -65 -26.5s-26 -39.834 -26 -66.501c0 -26 8.83301 -47.833 26.5 -65.5s39.5 -26.5 65.5 -26.5c24.667 0 45.834 8.83301 63.501 26.5s26.5 38.834 26.5 63.501z" />
    <glyph glyph-name="plusminus" unicode="&#xb1;" 
d="M482 316h-167v-169h-96v169h-168v94h168v168h96v-168h167v-94zM482 0h-431v95h431v-95z" />
    <glyph glyph-name="paragraph" unicode="&#xb6;" horiz-adv-x="636" 
d="M544 -205h-102v820h-108v-820h-102v522c-56.667 3.33301 -103.167 22.833 -139.5 58.5s-54.5 82.167 -54.5 139.5c0 59.333 20.5 107 61.5 143s95.5 54 163.5 54h281v-917z" />
    <glyph glyph-name="guillemotright" unicode="&#xbb;" horiz-adv-x="592" 
d="M556 272l-231 -230v123l107 107l-107 106v123zM302 272l-230 -230v123l108 107l-108 106v123z" />
    <glyph glyph-name="divide" unicode="&#xf7;" 
d="M339 472c0 -20.667 -6.99902 -38.001 -20.999 -52.001s-31 -21 -51 -21s-37.167 7 -51.5 21s-21.5 31 -21.5 51s7.16699 37.167 21.5 51.5s31.5 21.5 51.5 21.5c19.333 0 36.166 -7.16699 50.499 -21.5s21.5 -31.166 21.5 -50.499zM484.001 229.999h-436v95h436v-95z
M339.001 85.999c0 -20.667 -7.16699 -38.333 -21.5 -53s-31.166 -22 -50.499 -22c-20 0 -37.167 7.33301 -51.5 22s-21.5 31.667 -21.5 51c0 20 7.16699 37.167 21.5 51.5s31.5 21.5 51.5 21.5c19.333 0 36.166 -7.16699 50.499 -21.5s21.5 -30.833 21.5 -49.5z" />
    <glyph glyph-name="florin" unicode="&#x192;" horiz-adv-x="415" 
d="M385 630l-59 0.000976562c-37.333 0 -59.666 -19.667 -66.999 -59l-31 -180h100v-78h-114l-91 -518h-102l92 518h-82v78h95l33 185c7.33301 43.333 25.666 77.666 54.999 102.999s65.333 38 108 38h63v-87z" />
    <glyph glyph-name="Delta" unicode="&#x394;" horiz-adv-x="619" 
d="M613 0h-608l261 712h87zM472 92l-161 459l-163 -459h324z" />
    <glyph glyph-name="mu" unicode="&#x3bc;" horiz-adv-x="569" 
d="M487 0h-100.002v51c-38 -38 -82.333 -57 -133 -57c-29.333 0 -54.666 8.33301 -75.999 25v-224h-102v712h102v-309c0 -35.333 9 -63 27 -83s43.333 -30 76 -30s58.334 10 77.001 30s28 47.667 28 83v309h101v-507z" />
    <glyph glyph-name="afii10023" unicode="&#x401;" horiz-adv-x="603" 
d="M477 839c0 -16 -5.5 -29.499 -16.5 -40.499s-24.167 -16.5 -39.5 -16.5s-28.5 5.5 -39.5 16.5s-16.5 24.167 -16.5 39.5s5.5 28.666 16.5 39.999s24.167 17 39.5 17s28.5 -5.5 39.5 -16.5s16.5 -24.167 16.5 -39.5zM258 839.001c0 -16 -5.5 -29.499 -16.5 -40.499
s-24.167 -16.5 -39.5 -16.5s-28.5 5.5 -39.5 16.5s-16.5 24.167 -16.5 39.5s5.5 28.666 16.5 39.999s24.167 17 39.5 17c14.667 0 27.667 -5.5 39 -16.5s17 -24.167 17 -39.5zM549 0.00195312h-456v712h456v-97h-348v-208h296v-96h-296v-214h348v-97z" />
    <glyph glyph-name="afii10051" unicode="&#x402;" horiz-adv-x="746" 
d="M669 24c0 -71.333 -19.667 -127.501 -59 -168.501s-96.666 -61.5 -171.999 -61.5c-30.667 0 -58.667 4.33301 -84 13c-22 8 -43.333 20.333 -64 37l66 78c22.667 -20.667 50.667 -31 84 -31c37.333 0 66.666 12.167 87.999 36.5s32 58.833 32 103.5v191
c0 36 -10.167 62.333 -30.5 79s-44.833 25 -73.5 25h-155v-326h-108v615h-165v97h499v-97h-226v-193h173c56 0 102.5 -16.167 139.5 -48.5s55.5 -77.166 55.5 -134.499v-215z" />
    <glyph glyph-name="afii10052" unicode="&#x403;" horiz-adv-x="565" 
d="M439 927l-111 -162h-76l75 162h112zM536 615h-330v-615h-108v712h438v-97z" />
    <glyph glyph-name="afii10053" unicode="&#x404;" horiz-adv-x="574" 
d="M522 78c-36 -32.667 -69.001 -55.0029 -99.001 -67.0029c-27.333 -11.333 -60 -17 -98 -17c-76.667 0 -139.667 25.333 -189 76c-14 14 -25.5 30.167 -34.5 48.5s-15.833 34.666 -20.5 48.999s-8 35.333 -10 63s-3.16699 48.5 -3.5 62.5s-0.5 39.333 -0.5 76v28
c0 67.333 4.83301 118.333 14.5 153s27.834 65.334 54.501 92.001c50.667 50.667 113.334 76 188.001 76c37.333 0 70.333 -5.66699 99 -17c30.667 -12.667 63.667 -35 99 -67l-72 -73c-40 40 -81.667 60 -125 60c-44 0 -79 -13.667 -105 -41
c-12.667 -13.333 -22.334 -31.166 -29.001 -53.499s-10.667 -40.666 -12 -54.999s-2.33301 -36.166 -3 -65.499h233v-95h-233c0.666992 -48 4 -85.333 10 -112s17.333 -49 34 -67c26 -27.333 61 -41 105 -41c43.333 0 85 20 125 60z" />
    <glyph glyph-name="afii10054" unicode="&#x405;" horiz-adv-x="590" 
d="M538 204c0 -65.333 -23.665 -116.665 -70.998 -153.998s-112.333 -56 -195 -56c-50 0 -93.833 7.33301 -131.5 22s-74.5 38.667 -110.5 72l72 72c27.333 -25.333 54.666 -43.166 81.999 -53.499s60 -15.5 98 -15.5c48 0 84.833 9.5 110.5 28.5s38.5 46.167 38.5 81.5
c0 34 -8.83301 58.5 -26.5 73.5s-44.167 24.833 -79.5 29.5l-84 12c-124.667 18 -187 82 -187 192c0 65.333 21.667 116.666 65 153.999s103.333 56 180 56c44 0 82.5 -6.33301 115.5 -19s65.833 -33.334 98.5 -62.001l-69 -68c-43.333 36.667 -93.333 55 -150 55
c-42.667 0 -75.834 -9.83301 -99.501 -29.5s-35.5 -46.834 -35.5 -81.501c0 -54.667 35.667 -87.667 107 -99l81 -12c62 -9.33301 109.333 -29.333 142 -60s49 -76.667 49 -138z" />
    <glyph glyph-name="afii10055" unicode="&#x406;" horiz-adv-x="294" 
d="M201 0h-108v712h108v-712z" />
    <glyph glyph-name="afii10056" unicode="&#x407;" horiz-adv-x="294" 
d="M313 839c0 -16 -5.66699 -29.499 -17 -40.499s-24.666 -16.5 -39.999 -16.5s-28.5 5.5 -39.5 16.5s-16.5 24.167 -16.5 39.5s5.5 28.666 16.5 39.999s24.167 17 39.5 17s28.666 -5.66699 39.999 -17s17 -24.333 17 -39zM93 839.001c0 -16 -5.5 -29.499 -16.5 -40.499
s-24.167 -16.5 -39.5 -16.5s-28.5 5.5 -39.5 16.5s-16.5 24.167 -16.5 39.5s5.5 28.666 16.5 39.999s24.167 17 39.5 17s28.5 -5.5 39.5 -16.5s16.5 -24.167 16.5 -39.5zM201 0.00195312h-108v712h108v-712z" />
    <glyph glyph-name="afii10057" unicode="&#x408;" horiz-adv-x="506" 
d="M423 225c0 -69.333 -21.833 -125.167 -65.5 -167.5s-101.5 -63.5 -173.5 -63.5c-36.667 0 -69 6 -97 18c-24 9.33301 -48.667 26.333 -74 51l72 71c16 -16 31.333 -27.167 46 -33.5s32.667 -9.5 54 -9.5c41.333 0 73.333 12.333 96 37s34 59.667 34 105v479h108v-487z
" />
    <glyph glyph-name="afii10058" unicode="&#x409;" horiz-adv-x="1025" 
d="M988 216c0 -64 -20.667 -116 -62 -156s-95.666 -60 -162.999 -60h-274v615h-198l-10 -308c-3.33301 -107.333 -22.333 -185.333 -57 -234s-86.334 -73 -155.001 -73h-54v97h25c42 0 74 15.667 96 47s34.333 90.333 37 177l11 391h413v-280h166c68 0 122.5 -20 163.5 -60
s61.5 -92 61.5 -156zM880 216c0 36.667 -11.333 65.667 -34 87s-53.667 32 -93 32h-156v-238h156c39.333 0 70.333 10.5 93 31.5s34 50.167 34 87.5z" />
    <glyph glyph-name="afii10059" unicode="&#x40a;" horiz-adv-x="1025" 
d="M988 216c0 -64 -20.668 -116 -62.001 -156s-95.666 -60 -162.999 -60h-274v335h-288v-335h-108v712h108v-280h288v280h108v-280h166c68 0 122.5 -20 163.5 -60s61.5 -92 61.5 -156zM879.999 216c0 36.667 -11.333 65.667 -34 87s-53.667 32 -93 32h-156v-238h156
c39.333 0 70.333 10.5 93 31.5s34 50.167 34 87.5z" />
    <glyph glyph-name="afii10060" unicode="&#x40b;" horiz-adv-x="746" 
d="M669 0h-109v235c0 36 -10.167 62.333 -30.5 79s-44.833 25 -73.5 25c-43.333 0 -95 -6.33301 -155 -19v-320h-108v615h-165v97h499v-97h-226v-199c72 14 131.333 21 178 21c52.667 0 97.5 -16.333 134.5 -49s55.5 -77.667 55.5 -135v-253z" />
    <glyph glyph-name="afii10061" unicode="&#x40c;" horiz-adv-x="658" 
d="M450 927l-112 -162h-76l75 162h113zM648 0h-127l-200 351l-120 -144v-207h-108v712h108v-358l290 358h133l-231 -279z" />
    <glyph glyph-name="afii10062" unicode="&#x40e;" horiz-adv-x="564" 
d="M453 893c-13.333 -93.333 -66.999 -140 -160.999 -140c-94.667 0 -148.334 46.667 -161.001 140h73c10 -43.333 39.333 -65 88 -65c49.333 0 78.333 21.667 87 65h74zM558.001 712l-255 -596c-33.333 -77.333 -83.333 -116 -150 -116h-74v97h51c39.333 0 67 19 83 57
l25 58l-231 500h114l170 -381l153 381h114z" />
    <glyph glyph-name="afii10145" unicode="&#x40f;" horiz-adv-x="691" 
d="M597 0h-199v-170h-105v170h-200v712h108v-615h288v615h108v-712z" />
    <glyph glyph-name="afii10017" unicode="&#x410;" horiz-adv-x="625" 
d="M616 0h-113l-50 143h-281l-50 -143h-114l261 712h87zM424 235l-109 316l-112 -316h221z" />
    <glyph glyph-name="afii10018" unicode="&#x411;" horiz-adv-x="655" 
d="M595 216c0 -64.667 -20.333 -116.832 -61 -156.499s-95.334 -59.5 -164.001 -59.5h-277v712h458v-97h-350v-183h169c68.667 0 123.334 -19.833 164.001 -59.5s61 -91.834 61 -156.501zM487 216.002c0 36.667 -11 65.667 -33 87s-52.333 32 -91 32h-162v-238h162
c38.667 0 69 10.5 91 31.5s33 50.167 33 87.5z" />
    <glyph glyph-name="afii10019" unicode="&#x412;" horiz-adv-x="663" 
d="M596 200c0 -61.333 -19.167 -110 -57.5 -146s-90.833 -54 -157.5 -54h-288v712h277c64.667 0 116.667 -17.5 156 -52.5s59 -81.5 59 -139.5c0 -72 -32 -123.667 -96 -155c71.333 -33.333 107 -88.333 107 -165zM477 513c0 32 -10.333 57 -31 75s-49 27 -85 27h-160v-204
h160c36 0 64.333 9 85 27s31 43 31 75zM487 206c0 33.333 -10.5 59.667 -31.5 79s-49.5 29 -85.5 29h-169v-217h169c36 0 64.5 9.83301 85.5 29.5s31.5 46.167 31.5 79.5z" />
    <glyph glyph-name="afii10020" unicode="&#x413;" horiz-adv-x="565" 
d="M536 615h-330v-615h-108v712h438v-97z" />
    <glyph glyph-name="afii10021" unicode="&#x414;" horiz-adv-x="706" 
d="M672 -170h-105.999v170h-432v-170h-105v267h71c31.333 76 53.166 154.5 65.499 235.5s18.5 193.167 18.5 336.5v43h404v-615h84v-267zM480.001 97v518.001h-192v-35c0 -114.667 -5.83301 -205.334 -17.5 -272.001s-31.5 -137 -59.5 -211h269z" />
    <glyph glyph-name="afii10022" unicode="&#x415;" horiz-adv-x="603" 
d="M549 0h-456v712h456v-97h-348v-208h296v-96h-296v-214h348v-97z" />
    <glyph glyph-name="afii10024" unicode="&#x416;" horiz-adv-x="943" 
d="M933 0h-127l-185 339l-96 -126v-213h-108v213l-96 126l-184 -339h-127l240 425l-215 287h130l252 -356v356h108v-356l252 356h130l-215 -287z" />
    <glyph glyph-name="afii10025" unicode="&#x417;" horiz-adv-x="589" 
d="M521 201c0 -62 -22.834 -112.002 -68.501 -150.002s-103.167 -57 -172.5 -57c-54 0 -100.5 6.83301 -139.5 20.5s-76.5 38.167 -112.5 73.5l71 72c50 -46 109.667 -69 179 -69c38 0 69.833 10.167 95.5 30.5s38.5 47.833 38.5 82.5c0 37.333 -11.167 65.833 -33.5 85.5
s-53.166 29.5 -92.499 29.5h-85v90h87c36 0 64 9.5 84 28.5s30 45.833 30 80.5c0 32.667 -11.5 58.334 -34.5 77.001s-52.5 28 -88.5 28c-64 0 -117 -18.667 -159 -56l-67 69c62 54.667 138.667 82 230 82c65.333 0 119.5 -17.667 162.5 -53s64.5 -82 64.5 -140
c0 -73.333 -32.667 -125.666 -98 -156.999c72.667 -29.333 109 -85 109 -167z" />
    <glyph glyph-name="afii10026" unicode="&#x418;" horiz-adv-x="711" 
d="M618 0h-108v517l-319 -517h-98v712h108v-516l318 516h99v-712z" />
    <glyph glyph-name="afii10027" unicode="&#x419;" horiz-adv-x="711" 
d="M517 893c-12.667 -93.333 -66.333 -140 -161 -140c-94 0 -147.667 46.667 -161 140h73c10 -43.333 39.667 -65 89 -65s78.333 21.667 87 65h73zM618.001 0h-108v517l-319 -517h-98v712h108v-516l318 516h99v-712z" />
    <glyph glyph-name="afii10028" unicode="&#x41a;" horiz-adv-x="658" 
d="M648 0h-127l-200 351l-120 -144v-207h-108v712h108v-358l290 358h133l-231 -279z" />
    <glyph glyph-name="afii10029" unicode="&#x41b;" horiz-adv-x="691" 
d="M597 0h-107.999v615h-198l-10 -308c-3.33301 -107.333 -22.333 -185.333 -57 -234s-86.334 -73 -155.001 -73h-54v97h25c42 0 74 15.667 96 47s34.333 90.333 37 177l11 391h413v-712z" />
    <glyph glyph-name="afii10030" unicode="&#x41c;" horiz-adv-x="813" 
d="M721 0h-109v476l-164 -347h-80l-167 347v-476h-108v712h107l208 -443l205 443h108v-712z" />
    <glyph glyph-name="afii10031" unicode="&#x41d;" horiz-adv-x="690" 
d="M598 0h-109v311h-288v-311h-108v712h108v-305h288v305h109v-712z" />
    <glyph glyph-name="afii10032" unicode="&#x41e;" horiz-adv-x="647" 
d="M580 356c0 -53.333 -0.668945 -92.3301 -2.00195 -116.997s-7.33301 -53.334 -18 -86.001s-27 -60.334 -49 -83.001c-49.333 -50.667 -112 -76 -188 -76c-75.333 0 -137.666 25.333 -186.999 76c-22 22 -38.333 50 -49 84s-16.667 63 -18 87s-2 60.667 -2 110v38
c0 64.667 4.5 116 13.5 154s27.5 71 55.5 99c50.667 50.667 113 76 187 76c74.667 0 137.334 -25.333 188.001 -76c46 -46.667 69 -125.334 69 -236.001v-50zM470.998 363.003c0 62.667 -2.33008 109.166 -6.99707 139.499s-16.334 55.166 -35.001 74.499
c-28 29.333 -63.333 44 -106 44s-78 -14.667 -106 -44c-13.333 -14 -23.166 -33.167 -29.499 -57.5s-9.83301 -46 -10.5 -65s-1 -50.167 -1 -93.5v-29.5v-30.5c0 -5.33301 0.166992 -14.666 0.5 -27.999s0.833008 -23 1.5 -29s1.66699 -14.333 3 -25s3 -19.167 5 -25.5
l7 -21.5c2.66699 -8 6 -14.833 10 -20.5s8.66699 -11.167 14 -16.5c29.333 -29.333 64.666 -44 105.999 -44c43.333 0 78.666 14.667 105.999 44c13.333 14 23.166 32.333 29.499 55s10 44.834 11 66.501s1.5 57.167 1.5 106.5z" />
    <glyph glyph-name="afii10033" unicode="&#x41f;" horiz-adv-x="690" 
d="M597 0h-108v615h-288v-615h-108v712h504v-712z" />
    <glyph glyph-name="afii10034" unicode="&#x420;" horiz-adv-x="629" 
d="M591 496c0 -64 -21.167 -116 -63.5 -156s-97.166 -60 -164.499 -60h-162v-280h-108v712h270c67.333 0 122.166 -20 164.499 -60s63.5 -92 63.5 -156zM483 496c0 36.667 -11.333 65.667 -34 87s-53.667 32 -93 32h-155v-238h155c38.667 0 69.5 10.667 92.5 32
s34.5 50.333 34.5 87z" />
    <glyph glyph-name="afii10035" unicode="&#x421;" horiz-adv-x="574" 
d="M522 78c-34 -30.667 -64.668 -51.999 -92.001 -63.999c-32 -13.333 -67 -20 -105 -20c-76.667 0 -139.667 25.333 -189 76c-16.667 16.667 -30.167 35 -40.5 55s-17.333 44.667 -21 74s-5.83398 52.666 -6.50098 69.999s-1 46.333 -1 87
c-0.666992 2.66699 -1 7.66699 -1 15s0.333008 12 1 14c0 70 4.5 123.167 13.5 159.5s27.5 68.833 55.5 97.5c50.667 50.667 113.334 76 188.001 76c38.667 0 74 -6.66699 106 -20c27.333 -12 58 -33.333 92 -64l-72 -73c-22 22 -42.167 37.5 -60.5 46.5
s-40.166 13.5 -65.499 13.5c-43.333 0 -78.666 -14.333 -105.999 -43c-12.667 -14 -22.334 -33 -29.001 -57s-10.5 -46.167 -11.5 -66.5s-1.5 -49.833 -1.5 -88.5v-32c0 -61.333 2.83301 -105.5 8.5 -132.5s16.834 -49.5 33.501 -67.5c26.667 -28.667 62 -43 106 -43
c25.333 0 47.166 4.5 65.499 13.5s38.5 24.5 60.5 46.5z" />
    <glyph glyph-name="afii10036" unicode="&#x422;" horiz-adv-x="560" 
d="M530 615h-196v-615h-108v615h-196v97h500v-97z" />
    <glyph glyph-name="afii10037" unicode="&#x423;" horiz-adv-x="564" 
d="M558 712l-255 -596c-33.333 -77.333 -83.333 -116 -150 -116h-74v97h51c39.333 0 67 19 83 57l25 58l-231 500h114l170 -381l153 381h114z" />
    <glyph glyph-name="afii10038" unicode="&#x424;" horiz-adv-x="770" 
d="M720 371c0 -89.333 -24.667 -160.5 -74 -213.5s-118.333 -80.5 -207 -82.5v-80h-108v80c-88.667 2 -157.667 29.5 -207 82.5s-74 124.167 -74 213.5c0 88 25.333 157.333 76 208s119 77.334 205 80.001v58h108v-58c86 -2.66699 154.333 -29.334 205 -80.001
s76 -120 76 -208zM612 367c0 60.667 -14.333 108 -43 142s-72 51.667 -130 53v-391c56 2 98.833 20.333 128.5 55s44.5 81.667 44.5 141zM331 171v391c-58 -1.33301 -101.333 -19 -130 -53s-43 -81.333 -43 -142c0 -59.333 14.667 -106.333 44 -141s72.333 -53 129 -55z" />
    <glyph glyph-name="afii10039" unicode="&#x425;" horiz-adv-x="578" 
d="M568 0h-125l-155 273l-155 -273h-123l219 365l-205 347h124l140 -255l141 255h124l-206 -347z" />
    <glyph glyph-name="afii10040" unicode="&#x426;" horiz-adv-x="715" 
d="M681 -170h-105v170h-483v712h108v-615h288v615h108v-615h84v-267z" />
    <glyph glyph-name="afii10041" unicode="&#x427;" horiz-adv-x="647" 
d="M554 0h-107.999v293c-18 -8.66699 -43.833 -17.334 -77.5 -26.001s-66.834 -13 -99.501 -13c-57.333 0 -104.833 17.333 -142.5 52s-56.5 82.334 -56.5 143.001v263h108v-246c0 -39.333 10.833 -68.333 32.5 -87s49.167 -28 82.5 -28c27.333 0 55.833 4.33301 85.5 13
s52.167 18.667 67.5 30v318h108v-712z" />
    <glyph glyph-name="afii10042" unicode="&#x428;" horiz-adv-x="992" 
d="M900 0h-807v712h108v-615h241v615h109v-615h240v615h109v-712z" />
    <glyph glyph-name="afii10043" unicode="&#x429;" horiz-adv-x="1016" 
d="M983 -170h-106v170h-784v712h108v-615h241v615h109v-615h240v615h109v-615h83v-267z" />
    <glyph glyph-name="afii10044" unicode="&#x42a;" horiz-adv-x="757" 
d="M720 216c0 -64 -20.8311 -116 -62.498 -156s-95.834 -60 -162.501 -60h-274v615h-191v97h300v-280h165c67.333 0 121.666 -20 162.999 -60s62 -92 62 -156zM612.002 216c0 36.667 -11.333 65.667 -34 87s-53.334 32 -92.001 32h-156v-238h156
c38.667 0 69.334 10.667 92.001 32s34 50.333 34 87z" />
    <glyph glyph-name="afii10045" unicode="&#x42b;" horiz-adv-x="879" 
d="M786 0h-108v712h108v-712zM592 216c0 -64 -20.833 -116 -62.5 -156s-96.167 -60 -163.5 -60h-273v712h108v-280h165c68 0 122.667 -20 164 -60s62 -92 62 -156zM483 216c0 36.667 -11.167 65.667 -33.5 87s-53.166 32 -92.499 32h-156v-238h156
c39.333 0 70.166 10.5 92.499 31.5s33.5 50.167 33.5 87.5z" />
    <glyph glyph-name="afii10046" unicode="&#x42c;" horiz-adv-x="629" 
d="M592 216c0 -64 -20.833 -116 -62.5 -156s-96.167 -60 -163.5 -60h-273v712h108v-280h165c68 0 122.667 -20 164 -60s62 -92 62 -156zM483 216c0 36.667 -11.167 65.667 -33.5 87s-53.166 32 -92.499 32h-156v-238h156c39.333 0 70.166 10.5 92.499 31.5
s33.5 50.167 33.5 87.5z" />
    <glyph glyph-name="afii10047" unicode="&#x42d;" horiz-adv-x="574" 
d="M507 324c0 -39.333 -1.00098 -70.9971 -3.00098 -94.9971s-8.33301 -51.333 -19 -82s-26.334 -56.334 -47.001 -77.001c-50.667 -50.667 -113.667 -76 -189 -76c-38 0 -70.667 5.66699 -98 17c-30.667 12.667 -63.667 35 -99 67l69 71c40 -38.667 82.667 -58 128 -58
c44 0 79.667 14.333 107 43c16 17.333 26.833 38.833 32.5 64.5s8.83398 63.167 9.50098 112.5h-232v95h231c-1.33301 41.333 -4 73.666 -8 96.999s-12.667 44 -26 62c-28.667 37.333 -66.667 56 -114 56c-26 0 -48.167 -4.66699 -66.5 -14s-38.5 -24.333 -60.5 -45l-69 73
c34.667 32 67.667 54 99 66c30.667 11.333 63.334 17 98.001 17c76 0 137 -23.667 183 -71c27.333 -27.333 46.5 -61.333 57.5 -102s16.5 -93.334 16.5 -158.001v-63z" />
    <glyph glyph-name="afii10048" unicode="&#x42e;" horiz-adv-x="909" 
d="M842 356c0 -81.333 -3.83398 -141.333 -11.501 -180s-26.834 -74 -57.501 -106c-49.333 -50.667 -111.666 -76 -186.999 -76s-137.666 25.333 -186.999 76c-27.333 28 -45.5 59.667 -54.5 95s-14.167 84 -15.5 146h-128v-311h-108v712h108v-304h129
c2 60.667 7.33301 108 16 142s26.334 64.667 53.001 92c48.667 50.667 111 76 187 76c75.333 0 137.666 -25.333 186.999 -76c46 -46.667 69 -121 69 -223v-63zM732.999 342l-0.00292969 37.001c0 58 -2.83301 101.167 -8.5 129.5s-16.5 51.166 -32.5 68.499
c-27.333 29.333 -62.666 44 -105.999 44c-44.667 0 -80 -14.667 -106 -44c-17.333 -18.667 -28.666 -43.167 -33.999 -73.5s-8 -74.833 -8 -133.5v-40c0 -58 2.83301 -100.5 8.5 -127.5s16.834 -49.167 33.501 -66.5c28 -30 63.333 -45 106 -45s78 15 106 45
c18 18.667 29.333 42.5 34 71.5s7 73.833 7 134.5z" />
    <glyph glyph-name="afii10049" unicode="&#x42f;" horiz-adv-x="653" 
d="M561 0h-108.999v280h-142l-137 -280h-129l155 300c-42.667 14 -76.167 38.333 -100.5 73s-36.5 75.667 -36.5 123c0 64 21.167 116 63.5 156s97.166 60 164.499 60h271v-712zM452.001 377v238h-155c-39.333 0 -70.333 -10.667 -93 -32s-34 -50.333 -34 -87
s11.5 -65.667 34.5 -87s53.833 -32 92.5 -32h155z" />
    <glyph glyph-name="afii10065" unicode="&#x430;" horiz-adv-x="530" 
d="M454 0l-100.001 0.000976562v46c-20 -20 -39.667 -33.5 -59 -40.5s-44.666 -10.5 -75.999 -10.5c-56.667 0 -100.167 13.167 -130.5 39.5s-45.5 64.166 -45.5 113.499c0 46 15.5 82 46.5 108s73.5 39 127.5 39h136v37c0 32.667 -9 56.5 -27 71.5s-47 22.5 -87 22.5
c-28 0 -50.667 -4.33301 -68 -13c-13.333 -6 -27 -18 -41 -36l-67 63c25.333 27.333 47.333 45 66 53c27.333 13.333 65 20 113 20c141.333 0 212 -58 212 -174v-339zM352.999 183.001l0.000976562 40h-120c-60.667 0 -91 -24 -91 -72s33.333 -72 100 -72
c39.333 0 67.666 8 84.999 24s26 42.667 26 80z" />
    <glyph glyph-name="afii10066" unicode="&#x431;" horiz-adv-x="537" 
d="M479 251c0 -94.667 -20.3369 -162.668 -61.0039 -204.001c-35.333 -35.333 -83.666 -53 -144.999 -53c-86 0 -145 36 -177 108c-19.333 44 -29 109.333 -29 196v42c0 92.667 4.66699 162.334 14 209.001s32 84.667 68 114c18 14 41.5 25.5 70.5 34.5
s52.833 14.667 71.5 17s46.667 4.66602 84 6.99902s57.666 3.5 60.999 3.5v-92c-7.33301 -0.666992 -24.5 -1.66699 -51.5 -3s-49.5 -2.83301 -67.5 -4.5s-38.667 -6 -62 -13s-42 -16.167 -56 -27.5c-6 -5.33301 -11.667 -11.333 -17 -18s-9.66602 -13 -12.999 -19
s-6.33301 -13.333 -9 -22s-4.66699 -15.667 -6 -21s-2.66602 -12.666 -3.99902 -21.999s-2.16602 -15.666 -2.49902 -18.999s-0.666016 -9.33301 -0.999023 -18s-0.5 -13.334 -0.5 -14.001h3c12 20 30.833 36.833 56.5 50.5s53.167 20.5 82.5 20.5
c127.333 0 191 -84 191 -252zM377.996 248.999c0 62.667 -9.66699 106.332 -29 130.999c-18 22 -43.667 33 -77 33c-32 0 -57.333 -11.667 -76 -35c-18 -24 -27 -67 -27 -129c0 -63.333 9.33301 -106.666 28 -129.999c18.667 -22.667 44 -34 76 -34c70 0 105 54.667 105 164
z" />
    <glyph glyph-name="afii10067" unicode="&#x432;" horiz-adv-x="545" 
d="M485 143c0 -44 -13.6689 -78.833 -41.002 -104.5s-64.666 -38.5 -111.999 -38.5h-251v507h243c46.667 0 83.834 -12.333 111.501 -37s41.5 -57.667 41.5 -99c0 -50.667 -23.667 -87 -71 -109c52.667 -24 79 -63.667 79 -119zM376.998 364c0 20 -6.5 35.5 -19.5 46.5
s-31.5 16.5 -55.5 16.5h-120v-128h120c50 0 75 21.667 75 65zM384.998 150c0 22 -6.83301 39.167 -20.5 51.5s-32.5 18.5 -56.5 18.5h-126v-141h126c24 0 42.833 6.5 56.5 19.5s20.5 30.167 20.5 51.5z" />
    <glyph glyph-name="afii10068" unicode="&#x433;" horiz-adv-x="426" 
d="M414 418h-227v-418h-102v507h329v-89z" />
    <glyph glyph-name="afii10069" unicode="&#x434;" horiz-adv-x="574" 
d="M549 -140h-98v140h-335v-140h-97v229h58c20.667 50.667 35.667 100 45 148s14 114.333 14 199v71h343v-418h70v-229zM377 89v329h-144c0 -4 -0.166992 -18.167 -0.5 -42.5s-0.5 -37.833 -0.5 -40.5c-2 -87.333 -18.667 -169.333 -50 -246h195z" />
    <glyph glyph-name="afii10070" unicode="&#x435;" horiz-adv-x="539" 
d="M484 223h-328.001c2 -94.667 46.333 -142 133 -142c42.667 0 82.334 17.667 119.001 53l64 -61c-29.333 -28.667 -57.833 -49 -85.5 -61s-61.5 -18 -101.5 -18c-76 0 -133.333 22.167 -172 66.5s-58 109.5 -58 195.5c0 79.333 19.167 142 57.5 188s90.833 69 157.5 69
c65.333 0 117.333 -22 156 -66s58 -103.333 58 -178v-46zM383.999 295c-6.66699 88.667 -44.668 133 -114.001 133c-38 0 -66.167 -12.5 -84.5 -37.5s-28.166 -56.833 -29.499 -95.5h228z" />
    <glyph glyph-name="afii10072" unicode="&#x436;" horiz-adv-x="742" 
d="M733 0h-120l-125 217l-66 -83v-134h-102v134l-66 83l-125 -217h-120l179 297l-162 210h121l173 -242v242h102v-242l174 242h119l-161 -210z" />
    <glyph glyph-name="afii10073" unicode="&#x437;" horiz-adv-x="489" 
d="M430 147c0 -45.333 -18.8311 -82.167 -56.498 -110.5s-83.167 -42.5 -136.5 -42.5c-88.667 0 -159.667 24.333 -213 73l61 65c36.667 -34 82.667 -51 138 -51c28 0 52.833 6.5 74.5 19.5s32.5 30.5 32.5 52.5c0 45.333 -29.333 68 -88 68h-76v77h75
c24.667 0 44.334 6 59.001 18s22 28.667 22 50c0 20.667 -8.83301 36.5 -26.5 47.5s-41.834 16.5 -72.501 16.5c-44.667 0 -85.334 -13 -122.001 -39l-57 65c49.333 38 114.666 57 195.999 57c51.333 0 94.5 -12.167 129.5 -36.5s52.5 -57.833 52.5 -100.5
c0 -24.667 -6.66699 -47 -20 -67s-31.333 -34.667 -54 -44c24.667 -9.33301 44.5 -24.5 59.5 -45.5s22.5 -45.167 22.5 -72.5z" />
    <glyph glyph-name="afii10074" unicode="&#x438;" horiz-adv-x="583" 
d="M502 0h-102v349l-217 -349h-102v507h102v-344l217 344h102v-507z" />
    <glyph glyph-name="afii10075" unicode="&#x439;" horiz-adv-x="583" 
d="M453 718c-13.333 -92.667 -67.333 -139 -162 -139c-94 0 -147.667 46.333 -161 139h73c10 -43.333 39.667 -65 89 -65s78.333 21.667 87 65h74zM502 0h-102v349l-217 -349h-102v507h102v-344l217 344h102v-507z" />
    <glyph glyph-name="afii10076" unicode="&#x43a;" horiz-adv-x="546" 
d="M527 0h-125l-145 225l-73 -83v-142h-102v507h102v-241l202 241h125l-185 -208z" />
    <glyph glyph-name="afii10077" unicode="&#x43b;" horiz-adv-x="570" 
d="M488 0h-102v418h-148l-6 -215c-4 -135.333 -57.333 -203 -160 -203h-55v89h21c59.333 0 90.333 45.333 93 136l8 282h349v-507z" />
    <glyph glyph-name="afii10078" unicode="&#x43c;" horiz-adv-x="667" 
d="M585 0h-102v325l-117 -232h-64l-119 232v-325h-102v507h101l152 -302l151 302h100v-507z" />
    <glyph glyph-name="afii10079" unicode="&#x43d;" horiz-adv-x="568" 
d="M487 0h-102v216h-202v-216h-102v507h102v-202h202v202h102v-507z" />
    <glyph glyph-name="afii10080" unicode="&#x43e;" horiz-adv-x="537" 
d="M479 256c0 -51.333 -4.5 -92.166 -13.5 -122.499s-24.167 -56.833 -45.5 -79.5c-38.667 -40 -89.334 -60 -152.001 -60c-62 0 -112.333 20 -151 60c-21.333 22.667 -36.666 49.167 -45.999 79.5s-14 70.5 -14 120.5c0 49.333 4.66699 89.166 14 119.499
s24.666 56.833 45.999 79.5c38.667 40 89 60 151 60c62.667 0 113.334 -20 152.001 -60c21.333 -22 36.5 -48.167 45.5 -78.5s13.5 -69.833 13.5 -118.5zM378 252c0 67.333 -10.666 113 -31.999 137c-20 22 -46 33 -78 33c-32.667 0 -58.667 -11.333 -78 -34
c-20.667 -25.333 -31 -71.333 -31 -138c0 -64 11 -108.333 33 -133c18 -21.333 43.333 -32 76 -32c33.333 0 59.666 11.333 78.999 34c20.667 24.667 31 69 31 133z" />
    <glyph glyph-name="afii10081" unicode="&#x43f;" horiz-adv-x="568" 
d="M487 0h-102v418h-202v-418h-102v507h406v-507z" />
    <glyph glyph-name="afii10082" unicode="&#x440;" horiz-adv-x="553" 
d="M495 252c0 -104 -18.666 -174.667 -55.999 -212c-30.667 -30.667 -72.667 -46 -126 -46c-28.667 0 -52.667 4.33301 -72 13s-38.666 23.667 -57.999 45v-257h-102v712h100v-53c21.333 22 41.166 37.333 59.499 46s42.166 13 71.499 13c94.667 0 152 -43.667 172 -131
c7.33301 -32.667 11 -76 11 -130zM394.001 254c0 60.667 -8.16602 103.834 -24.499 129.501s-43.5 38.5 -81.5 38.5c-41.333 0 -70 -16.333 -86 -49c-12.667 -26 -19 -67 -19 -123c0 -58.667 8.33301 -100.834 25 -126.501s43.667 -38.5 81 -38.5s64.166 13 80.499 39
s24.5 69.333 24.5 130z" />
    <glyph glyph-name="afii10083" unicode="&#x441;" horiz-adv-x="485" 
d="M448 66c-26 -26 -51.001 -44.332 -75.001 -54.999c-25.333 -11.333 -55.666 -17 -90.999 -17c-71.333 0 -127 23 -167 69s-60 110.333 -60 193c0 80 20.167 142.833 60.5 188.5s95.833 68.5 166.5 68.5c34 0 64.333 -5.66699 91 -17c24 -10.667 49 -29 75 -55l-69 -67
c-16.667 17.333 -32 29.666 -46 36.999s-31.333 11 -52 11c-82.667 0 -124 -56 -124 -168c0 -112.667 41.333 -169 124 -169c21.333 0 38.5 3.66699 51.5 11s28.5 20 46.5 38z" />
    <glyph glyph-name="afii10084" unicode="&#x442;" horiz-adv-x="440" 
d="M429 418h-155v-418h-102v418h-161v89h418v-89z" />
    <glyph glyph-name="afii10085" unicode="&#x443;" horiz-adv-x="471" 
d="M464 507l-224 -608c-24 -66.667 -71 -100 -141 -100h-41v92h26c21.333 0 37 3.5 47 10.5s18.667 21.167 26 42.5l28 80l-178 483h109l121 -358l118 358h109z" />
    <glyph glyph-name="afii10086" unicode="&#x444;" horiz-adv-x="709" 
d="M656 256c0 -84 -21.333 -148.167 -64 -192.5s-105 -67.166 -187 -68.499v-200h-102v200c-82 1.33301 -144.333 24.166 -187 68.499s-64 108.5 -64 192.5c0 168.667 83.667 254 251 256v200h102v-200c167.333 -2 251 -87.333 251 -256zM554 254
c0 111.333 -49.999 167.333 -149.999 168v-337c49.333 0.666992 86.666 15.5 111.999 44.5s38 70.5 38 124.5zM304.001 85l0.000976562 337c-100 -0.666992 -150 -56.667 -150 -168c0 -54 12.667 -95.5 38 -124.5s62.666 -43.833 111.999 -44.5z" />
    <glyph glyph-name="afii10087" unicode="&#x445;" horiz-adv-x="503" 
d="M481 0h-122l-107 173l-107 -173h-123l174 259l-167 248h123l100 -165l100 165h122l-167 -248z" />
    <glyph glyph-name="afii10088" unicode="&#x446;" horiz-adv-x="587" 
d="M559 -140h-98v140h-380v507h102v-418h202v418h102v-418h72v-229z" />
    <glyph glyph-name="afii10089" unicode="&#x447;" horiz-adv-x="537" 
d="M456 0h-101.999v203c-42.667 -18 -86.334 -27 -131.001 -27c-47.333 0 -85.5 13.333 -114.5 40s-43.5 62.667 -43.5 108v183h102v-161c0 -28 7.66699 -48.333 23 -61s35 -18.667 59 -18c42.667 0 77.667 9.66699 105 29v211h102v-507z" />
    <glyph glyph-name="afii10090" unicode="&#x448;" horiz-adv-x="812" 
d="M730 0h-649v507h102v-418h172v418h102v-418h171v418h102v-507z" />
    <glyph glyph-name="afii10091" unicode="&#x449;" horiz-adv-x="830" 
d="M802 -140h-97v140h-624v507h102v-418h172v418h102v-418h171v418h102v-418h72v-229z" />
    <glyph glyph-name="afii10092" unicode="&#x44a;" horiz-adv-x="609" 
d="M571 158c0 -47.333 -15.167 -85.5 -45.5 -114.5s-70.166 -43.5 -119.499 -43.5h-235v418h-159v89h261v-191h133c49.333 0 89.166 -14.5 119.499 -43.5s45.5 -67.167 45.5 -114.5zM470 158c0 23.333 -7 41.501 -21 54.501s-33.667 19.5 -59 19.5h-117v-149h117
c25.333 0 45 6.66699 59 20s21 31.666 21 54.999z" />
    <glyph glyph-name="afii10093" unicode="&#x44b;" horiz-adv-x="741" 
d="M653 0h-102v507h102v-507zM481 158c0 -46.667 -15.167 -84.667 -45.5 -114s-70.166 -44 -119.499 -44h-235v507h102v-191h133c49.333 0 89.166 -14.667 119.499 -44s45.5 -67.333 45.5 -114zM380 158c0 23.333 -7.16699 41.501 -21.5 54.501s-34.166 19.5 -59.499 19.5
h-116v-149h116c25.333 0 45.166 6.66699 59.499 20s21.5 31.666 21.5 54.999z" />
    <glyph glyph-name="afii10094" unicode="&#x44c;" horiz-adv-x="518" 
d="M481 158c0 -47.333 -15.167 -85.5 -45.5 -114.5s-69.833 -43.5 -118.5 -43.5h-236v507h102v-191h134c48.667 0 88.167 -14.5 118.5 -43.5s45.5 -67.167 45.5 -114.5zM380 158c0 23.333 -7 41.501 -21 54.501s-33.667 19.5 -59 19.5h-117v-149h117
c25.333 0 45 6.66699 59 20s21 31.666 21 54.999z" />
    <glyph glyph-name="afii10095" unicode="&#x44d;" horiz-adv-x="485" 
d="M430 256c0 -83.333 -19.832 -147.833 -59.499 -193.5s-95.834 -68.5 -168.501 -68.5c-35.333 0 -65.166 5.33301 -89.499 16s-49.5 29 -75.5 55l68 67c18 -18 34 -30.667 48 -38s31 -11 51 -11c39.333 0 69.333 12.833 90 38.5s32 59.5 34 101.5h-177v72h177
c-4 40 -16.5 71.5 -37.5 94.5s-50.167 34.5 -87.5 34.5c-32.667 0 -65.334 -16.333 -98.001 -49l-68 66c26.667 26 52.167 44.5 76.5 55.5s53.833 16.5 88.5 16.5c72 0 128 -22.667 168 -68s60 -108.333 60 -189z" />
    <glyph glyph-name="afii10096" unicode="&#x44e;" horiz-adv-x="752" 
d="M694 256c0 -50.667 -4.5 -91.332 -13.5 -121.999s-24.167 -57.334 -45.5 -80.001c-38.667 -40 -89.334 -60 -152.001 -60c-55.333 0 -101 16 -137 48c-45.333 38.667 -69.333 96.667 -72 174h-91v-216h-102v507h102v-204h91c4.66699 71.333 28.334 125.333 71.001 162
c37.333 32 83.333 48 138 48c68 0 120.667 -22.333 158 -67c35.333 -42 53 -105.333 53 -190zM593 254.002c0 63.333 -10.334 107.667 -31.001 133c-18 23.333 -44.333 35 -79 35c-33.333 0 -59.666 -11.667 -78.999 -35c-20 -24.667 -30 -68.667 -30 -132
s9.66699 -108 29 -134c19.333 -24 46 -36 80 -36s60.667 12.333 80 37c20 24.667 30 68.667 30 132z" />
    <glyph glyph-name="afii10097" unicode="&#x44f;" horiz-adv-x="536" 
d="M455 0h-102.001v186h-93l-96 -186h-120l114 205c-32.667 9.33301 -58.667 26.833 -78 52.5s-29 56.5 -29 92.5c0 46 15.333 83.667 46 113s70.334 44 119.001 44h239v-507zM353.999 270v152h-121c-25.333 0 -45.166 -6.83301 -59.499 -20.5s-21.5 -32.167 -21.5 -55.5
s7.16699 -41.833 21.5 -55.5s34.166 -20.5 59.499 -20.5h121z" />
    <glyph glyph-name="afii10071" unicode="&#x451;" horiz-adv-x="539" 
d="M439 657c0 -16 -5.66699 -29.499 -17 -40.499s-24.666 -16.5 -39.999 -16.5s-28.5 5.5 -39.5 16.5s-16.5 24.167 -16.5 39.5s5.5 28.666 16.5 39.999s24.167 17 39.5 17s28.666 -5.66699 39.999 -17s17 -24.333 17 -39zM219 657.001c0 -16 -5.5 -29.499 -16.5 -40.499
s-24.167 -16.5 -39.5 -16.5s-28.5 5.5 -39.5 16.5s-16.5 24.167 -16.5 39.5s5.5 28.666 16.5 39.999s24.167 17 39.5 17s28.5 -5.5 39.5 -16.5s16.5 -24.167 16.5 -39.5zM484 223.002h-328.001c2 -94.667 46.333 -142 133 -142c42.667 0 82.334 17.667 119.001 53l64 -61
c-29.333 -28.667 -57.833 -49 -85.5 -61s-61.5 -18 -101.5 -18c-76 0 -133.333 22.167 -172 66.5s-58 109.5 -58 195.5c0 79.333 19.167 142 57.5 188s90.833 69 157.5 69c65.333 0 117.333 -22 156 -66s58 -103.333 58 -178v-46zM383.999 295.002
c-6.66699 88.667 -44.668 133 -114.001 133c-38 0 -66.167 -12.5 -84.5 -37.5s-28.166 -56.833 -29.499 -95.5h228z" />
    <glyph glyph-name="afii10099" unicode="&#x452;" horiz-adv-x="566" 
d="M490 -47c0 -47.333 -12.833 -85.999 -38.5 -115.999s-66.167 -45 -121.5 -45h-54v87h36c24 0 42.667 7.66699 56 23s20 34.333 20 57v218c0 35.333 -8.5 62.666 -25.5 81.999s-41.5 29 -73.5 29s-57.667 -10 -77 -30s-29 -47 -29 -81v-177h-102v438h-52v78h52v196h102
v-196h238v-78h-238v-116c38.667 38.667 83.667 58 135 58c53.333 0 95.333 -16.833 126 -50.5s46 -79.167 46 -136.5v-240z" />
    <glyph glyph-name="afii10100" unicode="&#x453;" horiz-adv-x="426" 
d="M356 761l-111 -162h-77l76 162h112zM414 418h-228v-418h-102v507h330v-89z" />
    <glyph glyph-name="afii10101" unicode="&#x454;" horiz-adv-x="485" 
d="M448 65c-26 -26 -51.333 -44.333 -76 -55s-54.667 -16 -90 -16c-72 0 -127.833 22.833 -167.5 68.5s-59.5 110.167 -59.5 193.5c0 80.667 20 143.667 60 189s95.667 68 167 68c35.333 0 65 -5.5 89 -16.5s49.667 -29.5 77 -55.5l-68 -66
c-17.333 17.333 -33.166 29.833 -47.499 37.5s-31.5 11.5 -51.5 11.5c-37.333 0 -66.333 -11.5 -87 -34.5s-32.667 -54.5 -36 -94.5h181v-72h-182c2.66699 -42.667 14.167 -76.667 34.5 -102s50.166 -38 89.499 -38c20.667 0 38 3.83301 52 11.5s29.667 20.167 47 37.5z" />
    <glyph glyph-name="afii10102" unicode="&#x455;" horiz-adv-x="499" 
d="M455 155c0 -51.333 -19.333 -91.001 -58 -119.001s-93.334 -42 -164.001 -42c-47.333 0 -88.666 7.33301 -123.999 22c-23.333 9.33301 -49 26.333 -77 51l67 67c40.667 -35.333 89 -53 145 -53c36 0 63.667 6.16699 83 18.5s29 29.833 29 52.5
c0 35.333 -22.667 55 -68 59l-82 7c-99.333 8 -149 54 -149 138c0 48.667 17.833 87 53.5 115s84.167 42 145.5 42c43.333 0 82 -6.66699 116 -20c20.667 -7.33301 42 -19.666 64 -36.999l-64 -65c-31.333 24.667 -72 37 -122 37c-63.333 0 -95 -22 -95 -66
c0 -34 23.333 -53 70 -57l80 -7c100 -9.33301 150 -57 150 -143z" />
    <glyph glyph-name="afii10103" unicode="&#x456;" horiz-adv-x="264" 
d="M198 674c0 -19.333 -6.33203 -35.501 -18.999 -48.501s-28.334 -19.5 -47.001 -19.5c-18 0 -33.5 6.5 -46.5 19.5s-19.5 28.5 -19.5 46.5c0 18.667 6.5 34.334 19.5 47.001s28.5 19 46.5 19s33.5 -6.33301 46.5 -19s19.5 -27.667 19.5 -45zM183.001 -0.000976562h-102
v507h102v-507z" />
    <glyph glyph-name="afii10104" unicode="&#x457;" horiz-adv-x="264" 
d="M297 657c0 -16 -5.66699 -29.499 -17 -40.499s-24.666 -16.5 -39.999 -16.5s-28.5 5.5 -39.5 16.5s-16.5 24.167 -16.5 39.5s5.5 28.666 16.5 39.999s24.167 17 39.5 17s28.666 -5.66699 39.999 -17s17 -24.333 17 -39zM77 657.001c0 -16 -5.5 -29.499 -16.5 -40.499
s-24.167 -16.5 -39.5 -16.5s-28.5 5.5 -39.5 16.5s-16.5 24.167 -16.5 39.5s5.5 28.666 16.5 39.999s24.167 17 39.5 17s28.5 -5.5 39.5 -16.5s16.5 -24.167 16.5 -39.5zM183 0.00195312h-102v507h102v-507z" />
    <glyph glyph-name="afii10105" unicode="&#x458;" horiz-adv-x="264" 
d="M198 674c0 -19.333 -6.33203 -35.501 -18.999 -48.501s-28.334 -19.5 -47.001 -19.5c-18 0 -33.5 6.5 -46.5 19.5s-19.5 28.5 -19.5 46.5c0 18.667 6.5 34.334 19.5 47.001s28.5 19 46.5 19s33.5 -6.33301 46.5 -19s19.5 -27.667 19.5 -45zM183.001 -67.001
c0 -43.333 -12.5 -77.667 -37.5 -103s-58.833 -38 -101.5 -38h-63v88h45c19.333 0 33.333 4.66699 42 14s13 24.333 13 45v568h102v-574z" />
    <glyph glyph-name="afii10106" unicode="&#x459;" horiz-adv-x="824" 
d="M788 158c0 -46.667 -15.167 -84.667 -45.5 -114s-70.166 -44 -119.499 -44h-236v418h-148l-6 -215c-4 -135.333 -57.333 -203 -160 -203h-55v89h21c59.333 0 90.333 45.333 93 136l8 282h348v-191h135c49.333 0 89.166 -14.667 119.499 -44s45.5 -67.333 45.5 -114z
M687 158c0 23.333 -7.16699 41.501 -21.5 54.501s-34.166 19.5 -59.499 19.5h-119v-149h119c25.333 0 45.166 6.66699 59.499 20s21.5 31.666 21.5 54.999z" />
    <glyph glyph-name="afii10107" unicode="&#x45a;" horiz-adv-x="822" 
d="M786 158c0 -46.667 -15.167 -84.667 -45.5 -114s-70.166 -44 -119.499 -44h-236v226h-202v-226h-102v507h102v-191h202v191h102v-191h134c49.333 0 89.166 -14.5 119.499 -43.5s45.5 -67.167 45.5 -114.5zM684 158c0 23.333 -6.83301 41.5 -20.5 54.5
s-33.5 19.5 -59.5 19.5h-119v-149h119c26 0 45.833 6.5 59.5 19.5s20.5 31.5 20.5 55.5z" />
    <glyph glyph-name="afii10108" unicode="&#x45b;" horiz-adv-x="566" 
d="M490 0l-101.999 0.00195312v177c0 35.333 -8.83301 62.666 -26.5 81.999s-42.5 29 -74.5 29c-32.667 0 -58.167 -9.83301 -76.5 -29.5s-27.5 -46.834 -27.5 -81.501v-177h-102v438h-52v78h52v196h102v-196h238v-78h-238v-116c38.667 38.667 83 58 133 58
c53.333 0 95.666 -17 126.999 -51s47 -79.333 47 -136v-193z" />
    <glyph glyph-name="afii10109" unicode="&#x45c;" horiz-adv-x="546" 
d="M395 761l-111 -162h-77l76 162h112zM527 0h-125l-145 225l-73 -83v-142h-102v507h102v-241l202 241h125l-185 -208z" />
    <glyph glyph-name="afii10110" unicode="&#x45e;" horiz-adv-x="471" 
d="M396 718c-13.333 -92.667 -67 -139 -161 -139s-147.667 46.333 -161 139h73c10 -43.333 39.667 -65 89 -65c48 0 77 21.667 87 65h73zM464 507l-224 -608c-24 -66.667 -71 -100 -141 -100h-41v92h26c21.333 0 37 3.5 47 10.5s18.667 21.167 26 42.5l28 80l-178 483h109
l121 -358l118 358h109z" />
    <glyph glyph-name="afii10193" unicode="&#x45f;" horiz-adv-x="568" 
d="M487 0h-155v-140h-97v140h-154v507h102v-418h202v418h102v-507z" />
    <glyph glyph-name="afii10050" unicode="&#x490;" horiz-adv-x="565" 
d="M536 615h-330v-615h-108v712h333v170h105v-267z" />
    <glyph glyph-name="afii10098" unicode="&#x491;" horiz-adv-x="426" 
d="M414 418h-227v-418h-102v507h231v140h98v-229z" />
    <glyph glyph-name="endash" unicode="&#x2013;" horiz-adv-x="500" 
d="M500 230h-500v95h500v-95z" />
    <glyph glyph-name="emdash" unicode="&#x2014;" horiz-adv-x="1000" 
d="M1000 230h-1000v95h1000v-95z" />
    <glyph glyph-name="quoteleft" unicode="&#x2018;" horiz-adv-x="268" 
d="M209 776l-46 -214h-109l68 214h87z" />
    <glyph glyph-name="quoteright" unicode="&#x2019;" horiz-adv-x="268" 
d="M210 776l-69 -214h-87l46 214h110z" />
    <glyph glyph-name="quotesinglbase" unicode="&#x201a;" horiz-adv-x="268" 
d="M211 110l-69 -214h-87l46 214h110z" />
    <glyph glyph-name="quotedblleft" unicode="&#x201c;" horiz-adv-x="459" 
d="M401 776l-46 -214h-109l68 214h87zM211 776l-47 -214h-109l69 214h87z" />
    <glyph glyph-name="quotedblright" unicode="&#x201d;" horiz-adv-x="459" 
d="M401 776l-69 -214h-86l46 214h109zM211 776l-69 -214h-87l46 214h110z" />
    <glyph glyph-name="quotedblbase" unicode="&#x201e;" horiz-adv-x="459" 
d="M401 110l-69 -214h-86l46 214h109zM211 110l-69 -214h-87l46 214h110z" />
    <glyph glyph-name="dagger" unicode="&#x2020;" horiz-adv-x="592" 
d="M526 427h-180v-427h-102v427h-179v91h179v194h102v-194h180v-91z" />
    <glyph glyph-name="daggerdbl" unicode="&#x2021;" horiz-adv-x="592" 
d="M526 -11h-180v-194h-102v194h-179v91h179v347h-179v91h179v194h102v-194h180v-91h-180v-347h180v-91z" />
    <glyph glyph-name="bullet" unicode="&#x2022;" horiz-adv-x="512" 
d="M419 337c0 -46.667 -15.833 -86 -47.5 -118s-70.167 -48 -115.5 -48s-83.833 15.833 -115.5 47.5s-47.5 70.167 -47.5 115.5s15.833 83.833 47.5 115.5s70.167 47.5 115.5 47.5c44 0 82.167 -15.833 114.5 -47.5s48.5 -69.167 48.5 -112.5z" />
    <glyph glyph-name="ellipsis" unicode="&#x2026;" horiz-adv-x="803" 
d="M733 71c0 -20.667 -6.99902 -38.166 -20.999 -52.499s-31 -21.5 -51 -21.5s-37.167 7.16699 -51.5 21.5s-21.5 31.166 -21.5 50.499c0 20 7.16699 37.167 21.5 51.5s31.5 21.5 51.5 21.5c19.333 0 36.166 -7.16699 50.499 -21.5s21.5 -30.833 21.5 -49.5zM474.001 71.001
c0 -20.667 -7.16699 -38.166 -21.5 -52.499s-31.5 -21.5 -51.5 -21.5s-37 7.16699 -51 21.5s-21 31.166 -21 50.499c0 20 7 37.167 21 51.5s31 21.5 51 21.5c19.333 0 36.333 -7.16699 51 -21.5s22 -30.833 22 -49.5zM215.001 70.002c0 -20 -7.16699 -37.167 -21.5 -51.5
s-31.5 -21.5 -51.5 -21.5s-37.167 7.16699 -51.5 21.5s-21.5 31.166 -21.5 50.499c0 20 7.16699 37.167 21.5 51.5s31.5 21.5 51.5 21.5c19.333 0 36.333 -7.16699 51 -21.5s22 -31.166 22 -50.499z" />
    <glyph glyph-name="perthousand" unicode="&#x2030;" horiz-adv-x="1195" 
d="M1137 130c0 -40.667 -12.833 -73.5 -38.5 -98.5s-59.5 -37.5 -101.5 -37.5s-75.833 12.5 -101.5 37.5s-38.5 57.833 -38.5 98.5v101c0 40.667 12.833 73.5 38.5 98.5s59.5 37.5 101.5 37.5c41.333 0 75 -12.5 101 -37.5s39 -57.833 39 -98.5v-101zM783 130
c0 -40.667 -13 -73.5 -39 -98.5s-59.667 -37.5 -101 -37.5c-42 0 -75.833 12.5 -101.5 37.5s-38.5 57.833 -38.5 98.5v101c0 40.667 12.833 73.5 38.5 98.5s59.5 37.5 101.5 37.5c41.333 0 75 -12.5 101 -37.5s39 -57.833 39 -98.5v-101zM629 712l-335 -712h-82l336 712h81z
M339 481c0 -40.667 -13 -73.5 -39 -98.5s-60 -37.5 -102 -37.5s-75.833 12.5 -101.5 37.5s-38.5 57.833 -38.5 98.5v101c0 40.667 13 73.5 39 98.5s59.667 37.5 101 37.5c42 0 76 -12.5 102 -37.5s39 -57.833 39 -98.5v-101zM1061 132v96c0 48 -21.333 72 -64 72
s-64 -24 -64 -72v-95c0 -48 21.333 -72 64 -72s64 23.667 64 71zM707 133v95c0 48 -21.333 72 -64 72s-64 -24 -64 -72v-95c0 -48 21.333 -72 64 -72s64 24 64 72zM263 484v95c0 48 -21.667 72 -65 72c-42.667 0 -64 -24 -64 -72v-95c0 -48 21.667 -72 65 -72
c42.667 0 64 24 64 72z" />
    <glyph glyph-name="guilsinglleft" unicode="&#x2039;" horiz-adv-x="339" 
d="M267 42l-230 230l230 229v-123l-107 -106l107 -107v-123z" />
    <glyph glyph-name="guilsinglright" unicode="&#x203a;" horiz-adv-x="339" 
d="M302 272l-230 -230v123l108 107l-108 106v123z" />
    <glyph glyph-name="afii61352" unicode="&#x2116;" horiz-adv-x="964" 
d="M900 268c0 -40.667 -12.833 -73.5 -38.5 -98.5s-59.167 -37.5 -100.5 -37.5c-42.667 0 -76.834 12.5 -102.501 37.5s-38.5 57.833 -38.5 98.5v102c0 40.667 12.833 73.5 38.5 98.5s59.834 37.5 102.501 37.5c41.333 0 74.833 -12.5 100.5 -37.5s38.5 -57.833 38.5 -98.5
v-102zM903 0h-280v80h280v-80zM561 0h-92l-292 513v-513h-102v712h92l291 -512v512h103v-712zM822 271v96c0 46 -20.667 69 -62 69c-40.667 0 -61 -23 -61 -69v-96c0 -46 20.667 -69 62 -69c40.667 0 61 23 61 69z" />
    <glyph glyph-name="trademark" unicode="&#x2122;" horiz-adv-x="883" 
d="M822 285h-77v279l-91 -179h-70l-91 179v-279h-77v427h77l126 -243l126 243h77v-427zM346 643h-114v-358h-77v358h-114v69h305v-69z" />
    <glyph glyph-name="radical" unicode="&#x221a;" horiz-adv-x="579" 
d="M549 615h-90l-202 -615h-84l-168 507h111l99 -313l163 518h171v-97z" />
    <glyph glyph-name="infinity" unicode="&#x221e;" horiz-adv-x="830" 
d="M769 276c0 -52 -15.999 -93.999 -47.999 -125.999s-74 -48 -126 -48c-37.333 0 -69.333 8.16699 -96 24.5s-54.667 41.166 -84 74.499c-28.667 -32.667 -56.667 -57.5 -84 -74.5s-59.333 -25.5 -96 -25.5c-51.333 0 -93.166 16.167 -125.499 48.5s-48.5 74.5 -48.5 126.5
s16 94.167 48 126.5s73.667 48.5 125 48.5c36.667 0 68.667 -8.33301 96 -25s55.666 -41.667 84.999 -75c28.667 32.667 56.667 57.5 84 74.5s59.333 25.5 96 25.5c51.333 0 93.166 -16.167 125.499 -48.5s48.5 -74.5 48.5 -126.5zM670.001 274.001
c0 22.667 -7.00098 41.333 -21.001 56s-32.333 22 -55 22c-15.333 0 -30.666 -4.83301 -45.999 -14.5s-26.833 -18.5 -34.5 -26.5s-18.167 -20.333 -31.5 -37c23.333 -28 43 -48.167 59 -60.5s33.667 -18.5 53 -18.5c22.667 0 41 7.33301 55 22s21 33.667 21 57zM347 274
c-22.667 27.333 -42 47.333 -58 60s-33.667 19 -53 19c-22.667 0 -41.167 -7.33301 -55.5 -22s-21.5 -33.667 -21.5 -57s7.16699 -42.333 21.5 -57s32.833 -22 55.5 -22c19.333 0 37 6.33301 53 19s35.333 32.667 58 60z" />
    <glyph glyph-name="approxequal" unicode="&#x2248;" 
d="M511 380c-35.333 -33.333 -64.6641 -55.334 -87.9971 -66.001c-14.667 -7.33301 -34 -11 -58 -11c-21.333 0 -48 6 -80 18c-18.667 7.33301 -35.334 14.333 -50.001 21c-24.667 11.333 -46.334 17 -65.001 17c-15.333 0 -28.666 -2.83301 -39.999 -8.5
s-26 -17.167 -44 -34.5l-63 63c29.333 28.667 54.666 49 75.999 61c21.333 11.333 44.666 17 69.999 17c24.667 0 62 -11 112 -33c4 -1.33301 9.33301 -3.66602 16 -6.99902c24.667 -11.333 46.334 -17 65.001 -17c15.333 0 28.666 3 39.999 9s26 17.667 44 35z
M511.002 177.999c-30 -29.333 -55.3311 -49.333 -75.998 -60c-20.667 -12 -44 -18 -70 -18c-14.667 0 -41 6.33301 -79 19c-19.333 7.33301 -33.333 13 -42 17c-28 14 -52.333 21 -73 21c-14.667 0 -27.667 -3 -39 -9s-26.333 -17.667 -45 -35l-64 64
c33.333 32.667 62.666 54.667 87.999 66c14.667 7.33301 34 11 58 11c22 0 48.333 -6 79 -18c20 -8 34 -14 42 -18c27.333 -13.333 51.666 -20 72.999 -20c15.333 0 28.5 2.83301 39.5 8.5s25.833 17.5 44.5 35.5z" />
    <glyph glyph-name="notequal" unicode="&#x2260;" 
d="M481 133h-269l-89 -114l-67 46l55 68h-60v95h125l81 99h-206v95h270l90 115l67 -46l-56 -69h59v-95h-124l-81 -99h205v-95z" />
    <glyph glyph-name="lessequal" unicode="&#x2264;" 
d="M497 139l-461 160v96l461 156v-100l-330 -104l330 -108v-100zM497 -12h-461v95h461v-95z" />
    <glyph glyph-name="greaterequal" unicode="&#x2265;" 
d="M497 299l-461 -160v100l329 108l-329 104v100l461 -156v-96zM497 -12h-461v95h461v-95z" />
    <glyph glyph-name=".null" horiz-adv-x="0" 
 />
    <glyph glyph-name="nonmarkingreturn" horiz-adv-x="333" 
 />
    <glyph glyph-name="hyphenminus" horiz-adv-x="426" 
d="M359 230h-292v95h292v-95z" />
    <glyph glyph-name="periodcentered" horiz-adv-x="284" 
d="M215 277c0 -20.667 -7.16699 -38.166 -21.5 -52.499s-31.5 -21.5 -51.5 -21.5s-37.167 7.16699 -51.5 21.5s-21.5 31.5 -21.5 51.5c0 19.333 7.16699 36.166 21.5 50.499s31.5 21.5 51.5 21.5c19.333 0 36.333 -7.16699 51 -21.5s22 -30.833 22 -49.5z" />
    </font>
</defs>
</svg>
